<svg width="100" height="100" viewBox="0 0 100 100" fill="none" xmlns="http://www.w3.org/2000/svg">
<path d="M83.8749 17.2499C82.5468 17.2968 81.328 17.9999 80.6249 19.1249L42.9999 76.6874L18.6249 55.6249C17.578 54.539 16.0077 54.1328 14.5624 54.5859C13.1249 55.0312 12.0546 56.2499 11.8046 57.7343C11.5546 59.2265 12.1562 60.7265 13.3749 61.6249L41.2499 85.7499C42.1249 86.4921 43.2812 86.8203 44.414 86.6562C45.5546 86.4843 46.5624 85.8359 47.1874 84.8749L87.3749 23.4999C88.2343 22.2421 88.3046 20.6171 87.5624 19.289C86.8202 17.9687 85.3905 17.1796 83.8749 17.2499Z" fill="#33712D"/>
</svg>
