<svg width="137" height="84" viewBox="0 0 177 84" fill="none" xmlns="http://www.w3.org/2000/svg">
<path d="M104.768 29.064H91.772V26.976H104.768V29.064ZM116.635 35.292C116.635 36.42 116.887 37.2 117.391 37.632C117.919 38.04 118.819 38.244 120.091 38.244V39C117.499 38.904 115.843 38.856 115.123 38.856C114.451 38.856 112.891 38.892 110.443 38.964L109.579 39V38.244C110.851 38.244 111.799 38.028 112.423 37.596C113.071 37.164 113.395 36.396 113.395 35.292V26.58C113.395 25.428 113.275 24.588 113.035 24.06C112.795 23.508 112.387 23.148 111.811 22.98C111.259 22.788 110.395 22.692 109.219 22.692V21.9C110.971 21.852 112.411 21.696 113.539 21.432C114.691 21.168 115.723 20.712 116.635 20.064V35.292Z" fill="black"/>
<path d="M17.808 37.344C19.728 37.344 21.36 37.616 22.704 38.16C24.048 38.704 25.36 39.472 26.64 40.464C26.992 40.752 27.296 40.896 27.552 40.896C28.192 40.896 28.608 39.936 28.8 38.016H29.904C29.776 40.096 29.712 43.776 29.712 49.056H28.608C28.256 46.976 27.936 45.488 27.648 44.592C27.36 43.664 26.88 42.784 26.208 41.952C25.248 40.704 24.016 39.776 22.512 39.168C21.04 38.528 19.44 38.208 17.712 38.208C15.632 38.208 13.808 38.896 12.24 40.272C10.704 41.648 9.504 43.616 8.64 46.176C7.776 48.704 7.344 51.68 7.344 55.104C7.344 58.592 7.808 61.584 8.736 64.08C9.664 66.576 10.944 68.48 12.576 69.792C14.24 71.072 16.112 71.712 18.192 71.712C19.792 71.712 21.344 71.408 22.848 70.8C24.352 70.192 25.536 69.28 26.4 68.064C27.04 67.168 27.504 66.208 27.792 65.184C28.08 64.16 28.352 62.592 28.608 60.48H29.712C29.712 65.984 29.776 69.824 29.904 72H28.8C28.704 70.976 28.56 70.256 28.368 69.84C28.208 69.392 27.968 69.168 27.648 69.168C27.392 69.168 27.056 69.296 26.64 69.552C25.2 70.576 23.824 71.36 22.512 71.904C21.2 72.416 19.616 72.672 17.76 72.672C14.72 72.672 12.048 71.984 9.744 70.608C7.472 69.232 5.696 67.248 4.416 64.656C3.168 62.032 2.544 58.912 2.544 55.296C2.544 51.776 3.184 48.656 4.464 45.936C5.776 43.216 7.584 41.104 9.888 39.6C12.224 38.096 14.864 37.344 17.808 37.344ZM50.8549 37.344C53.8949 37.344 56.5509 38.032 58.8229 39.408C61.1269 40.784 62.9029 42.784 64.1509 45.408C65.4309 48 66.0709 51.104 66.0709 54.72C66.0709 58.24 65.4149 61.36 64.1029 64.08C62.8229 66.8 61.0149 68.912 58.6789 70.416C56.3749 71.92 53.7509 72.672 50.8069 72.672C47.7669 72.672 45.0949 71.984 42.7909 70.608C40.5189 69.232 38.7429 67.248 37.4629 64.656C36.2149 62.032 35.5909 58.912 35.5909 55.296C35.5909 51.776 36.2309 48.656 37.5109 45.936C38.8229 43.216 40.6309 41.104 42.9349 39.6C45.2709 38.096 47.9109 37.344 50.8549 37.344ZM50.6629 38.208C48.6149 38.208 46.8069 38.928 45.2389 40.368C43.7029 41.776 42.5029 43.76 41.6389 46.32C40.8069 48.88 40.3909 51.808 40.3909 55.104C40.3909 58.432 40.8549 61.36 41.7829 63.888C42.7429 66.416 44.0229 68.368 45.6229 69.744C47.2229 71.12 49.0149 71.808 50.9989 71.808C53.0469 71.808 54.8389 71.104 56.3749 69.696C57.9429 68.256 59.1429 66.256 59.9749 63.696C60.8389 61.136 61.2709 58.208 61.2709 54.912C61.2709 51.584 60.7909 48.656 59.8309 46.128C58.9029 43.6 57.6389 41.648 56.0389 40.272C54.4389 38.896 52.6469 38.208 50.6629 38.208ZM80.913 37.488C82.321 37.488 83.425 37.648 84.225 37.968C85.057 38.256 85.905 38.688 86.769 39.264C87.473 39.712 88.017 39.936 88.401 39.936C88.689 39.936 88.913 39.776 89.073 39.456C89.233 39.104 89.361 38.56 89.457 37.824H90.561C90.401 39.68 90.321 42.944 90.321 47.616H89.217C89.025 45.024 88.273 42.848 86.961 41.088C85.681 39.296 83.809 38.4 81.345 38.4C79.617 38.4 78.209 38.928 77.121 39.984C76.033 41.008 75.489 42.336 75.489 43.968C75.489 45.184 75.761 46.24 76.305 47.136C76.881 48.032 77.601 48.8 78.465 49.44C79.329 50.08 80.561 50.896 82.161 51.888L83.553 52.752C85.569 54 87.153 55.104 88.305 56.064C89.489 56.992 90.433 58.064 91.137 59.28C91.841 60.496 92.193 61.92 92.193 63.552C92.193 66.464 91.233 68.72 89.313 70.32C87.393 71.888 84.961 72.672 82.017 72.672C80.481 72.672 79.217 72.512 78.225 72.192C77.265 71.872 76.337 71.44 75.441 70.896C74.737 70.448 74.193 70.224 73.809 70.224C73.521 70.224 73.297 70.4 73.137 70.752C72.977 71.072 72.849 71.6 72.753 72.336H71.649C71.777 70.576 71.841 66.736 71.841 60.816H72.945C73.169 64.048 73.969 66.672 75.345 68.688C76.721 70.704 78.833 71.712 81.681 71.712C83.409 71.712 84.881 71.184 86.097 70.128C87.313 69.04 87.921 67.44 87.921 65.328C87.921 63.536 87.313 62.016 86.097 60.768C84.913 59.52 83.025 58.112 80.433 56.544C78.545 55.392 77.009 54.368 75.825 53.472C74.673 52.576 73.729 51.504 72.993 50.256C72.257 48.976 71.889 47.488 71.889 45.792C71.889 43.104 72.753 41.056 74.481 39.648C76.209 38.208 78.353 37.488 80.913 37.488ZM123.397 47.856C125.093 44.944 127.445 42.464 130.453 40.416L130.981 41.04C128.965 43.056 127.445 45.44 126.421 48.192C125.397 50.912 124.885 53.856 124.885 57.024C124.885 60.192 125.397 63.152 126.421 65.904C127.445 68.624 128.965 70.992 130.981 73.008L130.453 73.632C127.445 71.584 125.093 69.12 123.397 66.24C121.701 63.328 120.853 60.256 120.853 57.024C120.853 53.792 121.701 50.736 123.397 47.856ZM159.349 68.592C159.957 69.52 160.469 70.144 160.885 70.464C161.301 70.784 161.861 70.96 162.565 70.992V72C160.389 71.872 159.013 71.808 158.437 71.808C157.381 71.808 155.125 71.872 151.669 72V70.992C152.917 70.992 153.797 70.944 154.309 70.848C154.821 70.72 155.077 70.512 155.077 70.224C155.077 69.968 154.965 69.68 154.741 69.36L146.533 56.784L141.349 64.512C140.133 66.336 139.525 67.744 139.525 68.736C139.525 69.568 139.893 70.16 140.629 70.512C141.365 70.832 142.421 71.008 143.797 71.04V72C141.973 71.904 139.813 71.856 137.317 71.856C135.557 71.856 134.197 71.904 133.237 72V71.04C134.197 70.912 135.109 70.48 135.973 69.744C136.869 69.008 137.765 67.968 138.661 66.624L145.909 55.824L136.501 41.424C135.893 40.496 135.381 39.872 134.965 39.552C134.549 39.232 133.989 39.056 133.285 39.024V38.016C135.461 38.144 136.837 38.208 137.413 38.208C139.557 38.208 141.813 38.144 144.181 38.016V39.024C143.029 39.024 142.197 39.12 141.685 39.312C141.205 39.472 140.965 39.728 140.965 40.08C140.965 40.272 141.109 40.624 141.397 41.136L148.885 52.56L153.589 45.504C154.965 43.488 155.653 41.952 155.653 40.896C155.653 40.224 155.349 39.744 154.741 39.456C154.133 39.168 153.205 39.008 151.957 38.976V38.016C153.781 38.112 155.621 38.16 157.477 38.16C159.237 38.16 160.597 38.112 161.557 38.016V38.976C160.597 39.104 159.669 39.536 158.773 40.272C157.909 41.008 157.029 42.048 156.133 43.392L149.413 53.424L159.349 68.592ZM164.907 40.416C167.915 42.464 170.267 44.944 171.963 47.856C173.659 50.736 174.507 53.792 174.507 57.024C174.507 60.256 173.659 63.328 171.963 66.24C170.267 69.12 167.915 71.584 164.907 73.632L164.379 73.008C166.395 70.992 167.915 68.624 168.939 65.904C169.963 63.152 170.475 60.192 170.475 57.024C170.475 53.856 169.963 50.912 168.939 48.192C167.915 45.44 166.395 43.056 164.379 41.04L164.907 40.416Z" fill="black"/>
</svg>
