<svg width="89" height="104" viewBox="0 0 89 104" fill="none" xmlns="http://www.w3.org/2000/svg">
<g clip-path="url(#clip0_456_182)">
<path d="M83.4822 8.81921L62.7452 2.16321C61.4992 1.74721 60.1642 2.66241 60.1642 3.91041V9.06881H40.0502C39.1602 9.06881 38.4482 9.73441 38.4482 10.5664V16.3904C39.6052 16.5568 40.6732 16.8064 41.7412 17.3056V12.1472H60.0752V71.0528H47.8822L48.0602 71.8016C48.2382 72.5504 48.3272 73.3824 48.2382 74.1312H60.0752V79.2896C60.0752 80.5376 61.4102 81.4528 62.6562 81.0368L83.3932 74.3808C84.1942 74.1312 84.7282 73.4656 84.7282 72.6336V10.5664C84.7282 9.81761 84.1942 9.15201 83.4822 8.81921ZM67.7292 43.9296C66.6612 43.9296 65.7712 42.9312 65.7712 41.6C65.7712 40.352 66.6612 39.2704 67.7292 39.2704C68.7972 39.2704 69.7762 40.2688 69.7762 41.6C69.6872 42.848 68.7972 43.9296 67.7292 43.9296Z" fill="#527A8A"/>
<path d="M19.9365 55.8273L18.4235 61.1521H8.18846C6.05246 61.1521 4.27246 62.8161 4.27246 64.8129C4.27246 66.8097 6.05246 68.4737 8.18846 68.4737H21.3605C23.1405 68.4737 24.6535 67.3921 25.1875 65.8113L26.6115 60.8193L20.1145 55.9105C20.0255 55.9105 20.0255 55.9105 19.9365 55.8273Z" fill="#527A8A"/>
<path d="M38.6262 32.864C42.3642 32.032 44.5892 28.6208 43.7882 25.1264C42.8982 21.632 39.2492 19.552 35.5112 20.3008C31.7732 21.1328 29.5482 24.544 30.3492 28.0384C31.1502 31.5328 34.8882 33.696 38.6262 32.864Z" fill="#527A8A"/>
<path d="M40.8512 60.3199C40.6732 59.5711 40.1392 58.8224 39.5162 58.3232L32.4852 52.9984L36.2232 43.7632L39.9612 47.84C40.5842 48.5056 41.5632 48.9216 42.4532 48.9216C43.0762 48.9216 43.6102 48.7552 44.1442 48.5056L50.8192 44.7616C52.3322 43.9296 52.8662 42.016 51.9762 40.5184C51.0862 39.104 49.0392 38.6048 47.4372 39.4368L43.1652 41.8496L39.6052 38.0224C38.6262 37.024 37.4692 36.192 36.0452 35.6928L30.1712 33.696C28.3912 33.1136 26.5222 33.0304 24.7422 33.6128L16.9102 35.9424C16.0202 36.192 15.3082 36.7744 14.9522 37.6064L11.6592 44.4288C10.9472 46.0096 11.6592 47.7568 13.3502 48.5056C15.0412 49.1712 16.9102 48.5056 17.7112 46.9248L20.3812 41.3504L24.0302 40.2688L21.0042 51.0016C20.6482 52.416 21.0932 53.9136 22.3392 54.7456L33.5532 63.2319L36.4902 74.5471C36.9352 76.2111 38.5372 77.2928 40.3172 77.2928C40.6732 77.2928 40.9402 77.2928 41.2962 77.2096C43.4322 76.7104 44.6782 74.7136 44.1442 72.7168L40.8512 60.3199Z" fill="#527A8A"/>
<path d="M3.5245 94.1567H2.7468C2.7326 94.0561 2.7036 93.9668 2.6598 93.8886C2.616 93.8093 2.55978 93.7418 2.49112 93.6862C2.42247 93.6306 2.34316 93.588 2.2532 93.5584C2.16442 93.5288 2.06795 93.514 1.96378 93.514C1.77557 93.514 1.61162 93.5607 1.47195 93.6543C1.33227 93.7466 1.22396 93.8815 1.14702 94.0591C1.07008 94.2355 1.03161 94.4497 1.03161 94.7018C1.03161 94.9611 1.07008 95.1789 1.14702 95.3552C1.22514 95.5316 1.33404 95.6648 1.47372 95.7547C1.6134 95.8447 1.77498 95.8897 1.95845 95.8897C2.06143 95.8897 2.15672 95.8761 2.24432 95.8489C2.3331 95.8216 2.41181 95.782 2.48047 95.7299C2.54912 95.6766 2.60594 95.6121 2.65092 95.5364C2.69709 95.4606 2.72905 95.3742 2.7468 95.2771L3.5245 95.2807C3.50438 95.4476 3.45407 95.6086 3.37358 95.7636C3.29427 95.9175 3.18714 96.0554 3.0522 96.1773C2.91844 96.2981 2.75864 96.394 2.5728 96.465C2.38814 96.5348 2.17921 96.5697 1.94602 96.5697C1.62169 96.5697 1.33168 96.4963 1.07599 96.3496C0.821496 96.2028 0.620265 95.9903 0.472301 95.7121C0.325521 95.434 0.252131 95.0972 0.252131 94.7018C0.252131 94.3053 0.326705 93.9679 0.475852 93.6898C0.625 93.4116 0.827415 93.1997 1.0831 93.0541C1.33878 92.9073 1.62642 92.8339 1.94602 92.8339C2.15672 92.8339 2.35204 92.8635 2.53196 92.9227C2.71307 92.9819 2.87346 93.0683 3.01314 93.182C3.15282 93.2944 3.26645 93.4323 3.35405 93.5957C3.44283 93.759 3.49964 93.946 3.5245 94.1567ZM4.06161 96.52V93.7927H4.79492V94.2686H4.82333C4.87305 94.0993 4.9565 93.9715 5.07369 93.8851C5.19087 93.7975 5.32582 93.7537 5.47852 93.7537C5.51639 93.7537 5.55723 93.7561 5.60103 93.7608C5.64483 93.7655 5.6833 93.772 5.71644 93.7803V94.4515C5.68093 94.4408 5.63181 94.4314 5.56907 94.4231C5.50633 94.4148 5.44892 94.4106 5.39684 94.4106C5.28557 94.4106 5.18614 94.4349 5.09854 94.4834C5.01213 94.5308 4.94348 94.5971 4.89258 94.6823C4.84286 94.7675 4.818 94.8658 4.818 94.9771V96.52H4.06161ZM7.22346 96.5733C6.94292 96.5733 6.70144 96.5165 6.49902 96.4028C6.29779 96.288 6.14273 96.1258 6.03382 95.9163C5.92492 95.7056 5.87047 95.4565 5.87047 95.1688C5.87047 94.8883 5.92492 94.6421 6.03382 94.4302C6.14273 94.2183 6.29602 94.0532 6.4937 93.9348C6.69256 93.8164 6.92575 93.7572 7.19327 93.7572C7.37319 93.7572 7.54069 93.7862 7.69576 93.8442C7.85201 93.9011 7.98813 93.9869 8.10414 94.1017C8.22132 94.2165 8.31247 94.3609 8.37757 94.5349C8.44268 94.7078 8.47523 94.9102 8.47523 95.1422V95.3499H6.17232V94.8812H7.76323C7.76323 94.7723 7.73955 94.6758 7.69221 94.5918C7.64486 94.5077 7.57916 94.442 7.49512 94.3947C7.41226 94.3461 7.31578 94.3219 7.2057 94.3219C7.09088 94.3219 6.98908 94.3485 6.9003 94.4018C6.81271 94.4538 6.74405 94.5243 6.69434 94.6131C6.64462 94.7007 6.61917 94.7983 6.61799 94.906V95.3517C6.61799 95.4866 6.64284 95.6032 6.69256 95.7015C6.74346 95.7997 6.81507 95.8755 6.9074 95.9288C6.99973 95.982 7.10923 96.0087 7.23588 96.0087C7.31993 96.0087 7.39687 95.9968 7.46671 95.9731C7.53655 95.9495 7.59632 95.914 7.64604 95.8666C7.69576 95.8193 7.73364 95.7613 7.75968 95.6926L8.45925 95.7388C8.42374 95.9069 8.35094 96.0536 8.24086 96.1791C8.13195 96.3034 7.99109 96.4005 7.81827 96.4703C7.64663 96.539 7.44836 96.5733 7.22346 96.5733ZM9.74654 96.5715C9.57253 96.5715 9.41747 96.5413 9.28134 96.481C9.14521 96.4194 9.03749 96.3289 8.95819 96.2093C8.88006 96.0886 8.841 95.9382 8.841 95.7583C8.841 95.6068 8.86882 95.4795 8.92445 95.3766C8.98008 95.2736 9.05584 95.1907 9.15172 95.128C9.2476 95.0652 9.3565 95.0179 9.47843 94.9859C9.60153 94.954 9.73056 94.9315 9.8655 94.9185C10.0241 94.9019 10.152 94.8865 10.249 94.8723C10.3461 94.8569 10.4165 94.8344 10.4603 94.8048C10.5041 94.7752 10.526 94.7314 10.526 94.6734V94.6628C10.526 94.5503 10.4905 94.4633 10.4195 94.4018C10.3496 94.3402 10.2502 94.3094 10.1212 94.3094C9.98506 94.3094 9.87675 94.3396 9.79625 94.4C9.71576 94.4592 9.66249 94.5338 9.63645 94.6237L8.93688 94.5669C8.97239 94.4012 9.04223 94.2579 9.1464 94.1372C9.25056 94.0153 9.38491 93.9218 9.54945 93.8567C9.71517 93.7904 9.90693 93.7572 10.1247 93.7572C10.2762 93.7572 10.4213 93.775 10.5597 93.8105C10.6994 93.846 10.8231 93.9011 10.9308 93.9756C11.0397 94.0502 11.1256 94.1461 11.1883 94.2633C11.251 94.3793 11.2824 94.5184 11.2824 94.6805V96.52H10.5651V96.1418H10.5438C10.5 96.2271 10.4414 96.3022 10.368 96.3673C10.2946 96.4312 10.2064 96.4815 10.1034 96.5182C10.0004 96.5538 9.88148 96.5715 9.74654 96.5715ZM9.96316 96.0495C10.0744 96.0495 10.1727 96.0276 10.2579 95.9838C10.3431 95.9388 10.41 95.8784 10.4585 95.8027C10.5071 95.7269 10.5313 95.6411 10.5313 95.5452V95.2558C10.5077 95.2712 10.4751 95.2854 10.4337 95.2984C10.3934 95.3103 10.3479 95.3215 10.297 95.3322C10.2461 95.3416 10.1952 95.3505 10.1443 95.3588C10.0934 95.3659 10.0472 95.3724 10.0058 95.3783C9.91699 95.3913 9.83946 95.4121 9.77317 95.4405C9.70688 95.4689 9.65539 95.5074 9.6187 95.5559C9.582 95.6032 9.56365 95.6624 9.56365 95.7334C9.56365 95.8364 9.60094 95.9151 9.67551 95.9696C9.75127 96.0229 9.84715 96.0495 9.96316 96.0495ZM13.3199 93.7927V94.3609H11.6775V93.7927H13.3199ZM12.0503 93.1393H12.8067V95.682C12.8067 95.7518 12.8174 95.8062 12.8387 95.8453C12.86 95.8832 12.8896 95.9098 12.9275 95.9252C12.9665 95.9406 13.0115 95.9483 13.0624 95.9483C13.0979 95.9483 13.1334 95.9453 13.1689 95.9394C13.2045 95.9323 13.2317 95.927 13.2506 95.9234L13.3696 96.4863C13.3317 96.4981 13.2784 96.5117 13.2098 96.5271C13.1411 96.5437 13.0577 96.5538 12.9594 96.5573C12.7771 96.5644 12.6173 96.5401 12.48 96.4845C12.3439 96.4289 12.238 96.3425 12.1622 96.2253C12.0864 96.1081 12.0492 95.9601 12.0503 95.7814V93.1393ZM15.0262 96.5733C14.7456 96.5733 14.5042 96.5165 14.3018 96.4028C14.1005 96.288 13.9455 96.1258 13.8366 95.9163C13.7277 95.7056 13.6732 95.4565 13.6732 95.1688C13.6732 94.8883 13.7277 94.6421 13.8366 94.4302C13.9455 94.2183 14.0988 94.0532 14.2964 93.9348C14.4953 93.8164 14.7285 93.7572 14.996 93.7572C15.1759 93.7572 15.3434 93.7862 15.4985 93.8442C15.6547 93.9011 15.7909 93.9869 15.9069 94.1017C16.0241 94.2165 16.1152 94.3609 16.1803 94.5349C16.2454 94.7078 16.278 94.9102 16.278 95.1422V95.3499H13.9751V94.8812H15.566C15.566 94.7723 15.5423 94.6758 15.4949 94.5918C15.4476 94.5077 15.3819 94.442 15.2979 94.3947C15.215 94.3461 15.1185 94.3219 15.0084 94.3219C14.8936 94.3219 14.7918 94.3485 14.703 94.4018C14.6154 94.4538 14.5468 94.5243 14.4971 94.6131C14.4474 94.7007 14.4219 94.7983 14.4207 94.906V95.3517C14.4207 95.4866 14.4456 95.6032 14.4953 95.7015C14.5462 95.7997 14.6178 95.8755 14.7101 95.9288C14.8025 95.982 14.912 96.0087 15.0386 96.0087C15.1227 96.0087 15.1996 95.9968 15.2694 95.9731C15.3393 95.9495 15.3991 95.914 15.4488 95.8666C15.4985 95.8193 15.5364 95.7613 15.5624 95.6926L16.262 95.7388C16.2265 95.9069 16.1537 96.0536 16.0436 96.1791C15.9347 96.3034 15.7938 96.4005 15.621 96.4703C15.4494 96.539 15.2511 96.5733 15.0262 96.5733ZM17.7765 96.5644C17.5694 96.5644 17.3818 96.5111 17.2137 96.4046C17.0468 96.2969 16.9142 96.1389 16.816 95.9305C16.7189 95.721 16.6704 95.4641 16.6704 95.1599C16.6704 94.8474 16.7207 94.5876 16.8213 94.3805C16.9219 94.1721 17.0557 94.0165 17.2226 93.9135C17.3907 93.8093 17.5747 93.7572 17.7748 93.7572C17.9275 93.7572 18.0547 93.7833 18.1565 93.8354C18.2595 93.8863 18.3424 93.9502 18.4051 94.0271C18.469 94.1029 18.5175 94.1775 18.5507 94.2508H18.5738V92.8837H19.3284V96.52H18.5827V96.0832H18.5507C18.5152 96.159 18.4649 96.2342 18.3998 96.3087C18.3358 96.3821 18.2524 96.4431 18.1494 96.4916C18.0476 96.5401 17.9233 96.5644 17.7765 96.5644ZM18.0162 95.9625C18.1382 95.9625 18.2412 95.9293 18.3252 95.8631C18.4104 95.7956 18.4755 95.7015 18.5205 95.5807C18.5667 95.46 18.5898 95.3186 18.5898 95.1564C18.5898 94.9942 18.5673 94.8534 18.5223 94.7338C18.4773 94.6142 18.4122 94.5219 18.327 94.4568C18.2417 94.3917 18.1382 94.3592 18.0162 94.3592C17.892 94.3592 17.7872 94.3929 17.702 94.4604C17.6167 94.5278 17.5522 94.6213 17.5084 94.7409C17.4646 94.8605 17.4427 94.9989 17.4427 95.1564C17.4427 95.315 17.4646 95.4553 17.5084 95.5772C17.5534 95.6979 17.6179 95.7926 17.702 95.8613C17.7872 95.9288 17.892 95.9625 18.0162 95.9625ZM21.1217 96.52V92.8837H21.8781V94.2508H21.9012C21.9343 94.1775 21.9823 94.1029 22.045 94.0271C22.1089 93.9502 22.1918 93.8863 22.2936 93.8354C22.3966 93.7833 22.5244 93.7572 22.6771 93.7572C22.876 93.7572 23.0595 93.8093 23.2275 93.9135C23.3956 94.0165 23.53 94.1721 23.6306 94.3805C23.7312 94.5876 23.7815 94.8474 23.7815 95.1599C23.7815 95.4641 23.7324 95.721 23.6341 95.9305C23.5371 96.1389 23.4045 96.2969 23.2364 96.4046C23.0695 96.5111 22.8825 96.5644 22.6753 96.5644C22.5286 96.5644 22.4037 96.5401 22.3007 96.4916C22.1989 96.4431 22.1154 96.3821 22.0503 96.3087C21.9852 96.2342 21.9355 96.159 21.9012 96.0832H21.8675V96.52H21.1217ZM21.8621 95.1564C21.8621 95.3186 21.8846 95.46 21.9296 95.5807C21.9746 95.7015 22.0397 95.7956 22.1249 95.8631C22.2101 95.9293 22.3137 95.9625 22.4356 95.9625C22.5587 95.9625 22.6629 95.9288 22.7481 95.8613C22.8334 95.7926 22.8979 95.6979 22.9417 95.5772C22.9867 95.4553 23.0091 95.315 23.0091 95.1564C23.0091 94.9989 22.9872 94.8605 22.9434 94.7409C22.8997 94.6213 22.8351 94.5278 22.7499 94.4604C22.6647 94.3929 22.5599 94.3592 22.4356 94.3592C22.3125 94.3592 22.2084 94.3917 22.1231 94.4568C22.0391 94.5219 21.9746 94.6142 21.9296 94.7338C21.8846 94.8534 21.8621 94.9942 21.8621 95.1564ZM24.6653 97.5427C24.5694 97.5427 24.4795 97.5351 24.3954 97.5197C24.3126 97.5055 24.2439 97.4871 24.1895 97.4646L24.3599 96.9C24.4487 96.9272 24.5286 96.942 24.5996 96.9444C24.6718 96.9467 24.734 96.9302 24.786 96.8947C24.8393 96.8592 24.8825 96.7988 24.9157 96.7136L24.96 96.5981L23.9817 93.7927H24.7772L25.3418 95.7956H25.3702L25.9402 93.7927H26.7409L25.6809 96.8148C25.63 96.9615 25.5608 97.0894 25.4732 97.1983C25.3868 97.3084 25.2773 97.393 25.1447 97.4522C25.0121 97.5126 24.8523 97.5427 24.6653 97.5427ZM28.9262 96.52H28.1024L29.3577 92.8837H30.3485L31.602 96.52H30.7781L29.8673 93.7146H29.8389L28.9262 96.52ZM28.8747 95.0907H30.8208V95.6908H28.8747V95.0907ZM32.9035 96.5644C32.6963 96.5644 32.5087 96.5111 32.3406 96.4046C32.1737 96.2969 32.0412 96.1389 31.9429 95.9305C31.8459 95.721 31.7973 95.4641 31.7973 95.1599C31.7973 94.8474 31.8476 94.5876 31.9482 94.3805C32.0489 94.1721 32.1826 94.0165 32.3495 93.9135C32.5176 93.8093 32.7017 93.7572 32.9017 93.7572C33.0544 93.7572 33.1817 93.7833 33.2835 93.8354C33.3865 93.8863 33.4693 93.9502 33.532 94.0271C33.596 94.1029 33.6445 94.1775 33.6776 94.2508H33.7007V92.8837H34.4553V96.52H33.7096V96.0832H33.6776C33.6421 96.159 33.5918 96.2342 33.5267 96.3087C33.4628 96.3821 33.3794 96.4431 33.2764 96.4916C33.1746 96.5401 33.0503 96.5644 32.9035 96.5644ZM33.1432 95.9625C33.2651 95.9625 33.3681 95.9293 33.4521 95.8631C33.5374 95.7956 33.6025 95.7015 33.6475 95.5807C33.6936 95.46 33.7167 95.3186 33.7167 95.1564C33.7167 94.9942 33.6942 94.8534 33.6492 94.7338C33.6043 94.6142 33.5392 94.5219 33.4539 94.4568C33.3687 94.3917 33.2651 94.3592 33.1432 94.3592C33.0189 94.3592 32.9142 94.3929 32.8289 94.4604C32.7437 94.5278 32.6792 94.6213 32.6354 94.7409C32.5916 94.8605 32.5697 94.9989 32.5697 95.1564C32.5697 95.315 32.5916 95.4553 32.6354 95.5772C32.6804 95.6979 32.7449 95.7926 32.8289 95.8613C32.9142 95.9288 33.0189 95.9625 33.1432 95.9625ZM35.0772 96.52V93.7927H35.8105V94.2686H35.839C35.8887 94.0993 35.9721 93.9715 36.0893 93.8851C36.2065 93.7975 36.3414 93.7537 36.4941 93.7537C36.532 93.7537 36.5729 93.7561 36.6167 93.7608C36.6605 93.7655 36.6989 93.772 36.7321 93.7803V94.4515C36.6966 94.4408 36.6474 94.4314 36.5847 94.4231C36.522 94.4148 36.4645 94.4106 36.4125 94.4106C36.3012 94.4106 36.2018 94.4349 36.1142 94.4834C36.0278 94.5308 35.9591 94.5971 35.9082 94.6823C35.8585 94.7675 35.8336 94.8658 35.8336 94.9771V96.52H35.0772ZM37.1231 96.52V93.7927H37.8795V96.52H37.1231ZM37.5031 93.4412C37.3907 93.4412 37.2942 93.4039 37.2137 93.3293C37.1344 93.2536 37.0947 93.163 37.0947 93.0577C37.0947 92.9535 37.1344 92.8641 37.2137 92.7896C37.2942 92.7138 37.3907 92.6759 37.5031 92.6759C37.6156 92.6759 37.7114 92.7138 37.7907 92.7896C37.8712 92.8641 37.9115 92.9535 37.9115 93.0577C37.9115 93.163 37.8712 93.2536 37.7907 93.3293C37.7114 93.4039 37.6156 93.4412 37.5031 93.4412ZM39.7283 96.5733C39.4478 96.5733 39.2063 96.5165 39.0039 96.4028C38.8027 96.288 38.6476 96.1258 38.5387 95.9163C38.4298 95.7056 38.3754 95.4565 38.3754 95.1688C38.3754 94.8883 38.4298 94.6421 38.5387 94.4302C38.6476 94.2183 38.8009 94.0532 38.9986 93.9348C39.1974 93.8164 39.4306 93.7572 39.6982 93.7572C39.8781 93.7572 40.0456 93.7862 40.2006 93.8442C40.3569 93.9011 40.493 93.9869 40.609 94.1017C40.7262 94.2165 40.8174 94.3609 40.8825 94.5349C40.9476 94.7078 40.9801 94.9102 40.9801 95.1422V95.3499H38.6772V94.8812H40.2681C40.2681 94.7723 40.2444 94.6758 40.1971 94.5918C40.1497 94.5077 40.084 94.442 40 94.3947C39.9171 94.3461 39.8207 94.3219 39.7106 94.3219C39.5958 94.3219 39.494 94.3485 39.4052 94.4018C39.3176 94.4538 39.2489 94.5243 39.1992 94.6131C39.1495 94.7007 39.1241 94.7983 39.1229 94.906V95.3517C39.1229 95.4866 39.1477 95.6032 39.1974 95.7015C39.2483 95.7997 39.32 95.8755 39.4123 95.9288C39.5046 95.982 39.6141 96.0087 39.7408 96.0087C39.8248 96.0087 39.9018 95.9968 39.9716 95.9731C40.0414 95.9495 40.1012 95.914 40.1509 95.8666C40.2006 95.8193 40.2385 95.7613 40.2646 95.6926L40.9641 95.7388C40.9286 95.9069 40.8558 96.0536 40.7457 96.1791C40.6368 96.3034 40.496 96.4005 40.3232 96.4703C40.1515 96.539 39.9532 96.5733 39.7283 96.5733ZM42.2301 94.9433V96.52H41.4737V93.7927H42.1946V94.2739H42.2266C42.2869 94.1153 42.3881 93.9898 42.5302 93.8975C42.6722 93.804 42.8445 93.7572 43.0469 93.7572C43.2363 93.7572 43.4014 93.7987 43.5423 93.8815C43.6831 93.9644 43.7926 94.0828 43.8707 94.2366C43.9489 94.3893 43.9879 94.5716 43.9879 94.7835V96.52H43.2315V94.9185C43.2327 94.7516 43.1901 94.6213 43.1037 94.5278C43.0173 94.4331 42.8983 94.3858 42.7468 94.3858C42.645 94.3858 42.555 94.4077 42.4769 94.4515C42.4 94.4953 42.3396 94.5592 42.2958 94.6432C42.2532 94.7261 42.2313 94.8261 42.2301 94.9433ZM3.5245 100.157H2.7468C2.7326 100.056 2.7036 99.9668 2.6598 99.8886C2.616 99.8093 2.55978 99.7418 2.49112 99.6862C2.42247 99.6306 2.34316 99.588 2.2532 99.5584C2.16442 99.5288 2.06795 99.514 1.96378 99.514C1.77557 99.514 1.61162 99.5607 1.47195 99.6543C1.33227 99.7466 1.22396 99.8815 1.14702 100.059C1.07008 100.235 1.03161 100.45 1.03161 100.702C1.03161 100.961 1.07008 101.179 1.14702 101.355C1.22514 101.532 1.33404 101.665 1.47372 101.755C1.6134 101.845 1.77498 101.89 1.95845 101.89C2.06143 101.89 2.15672 101.876 2.24432 101.849C2.3331 101.822 2.41181 101.782 2.48047 101.73C2.54912 101.677 2.60594 101.612 2.65092 101.536C2.69709 101.461 2.72905 101.374 2.7468 101.277L3.5245 101.281C3.50438 101.448 3.45407 101.609 3.37358 101.764C3.29427 101.918 3.18714 102.055 3.0522 102.177C2.91844 102.298 2.75864 102.394 2.5728 102.465C2.38814 102.535 2.17921 102.57 1.94602 102.57C1.62169 102.57 1.33168 102.496 1.07599 102.35C0.821496 102.203 0.620265 101.99 0.472301 101.712C0.325521 101.434 0.252131 101.097 0.252131 100.702C0.252131 100.305 0.326705 99.9679 0.475852 99.6898C0.625 99.4116 0.827415 99.1997 1.0831 99.0541C1.33878 98.9073 1.62642 98.8339 1.94602 98.8339C2.15672 98.8339 2.35204 98.8635 2.53196 98.9227C2.71307 98.9819 2.87346 99.0683 3.01314 99.182C3.15282 99.2944 3.26645 99.4323 3.35405 99.5957C3.44283 99.759 3.49964 99.946 3.5245 100.157ZM5.29386 102.573C5.01805 102.573 4.77953 102.515 4.5783 102.398C4.37826 102.279 4.22378 102.115 4.11488 101.904C4.00598 101.692 3.95153 101.446 3.95153 101.167C3.95153 100.885 4.00598 100.639 4.11488 100.428C4.22378 100.217 4.37826 100.052 4.5783 99.9348C4.77953 99.8164 5.01805 99.7572 5.29386 99.7572C5.56966 99.7572 5.80759 99.8164 6.00763 99.9348C6.20887 100.052 6.36393 100.217 6.47283 100.428C6.58174 100.639 6.63619 100.885 6.63619 101.167C6.63619 101.446 6.58174 101.692 6.47283 101.904C6.36393 102.115 6.20887 102.279 6.00763 102.398C5.80759 102.515 5.56966 102.573 5.29386 102.573ZM5.29741 101.987C5.42288 101.987 5.52764 101.952 5.61168 101.881C5.69573 101.809 5.75906 101.71 5.80167 101.586C5.84547 101.462 5.86737 101.32 5.86737 101.162C5.86737 101.003 5.84547 100.862 5.80167 100.737C5.75906 100.613 5.69573 100.515 5.61168 100.443C5.52764 100.37 5.42288 100.334 5.29741 100.334C5.17075 100.334 5.06422 100.37 4.97781 100.443C4.89258 100.515 4.82807 100.613 4.78427 100.737C4.74165 100.862 4.72035 101.003 4.72035 101.162C4.72035 101.32 4.74165 101.462 4.78427 101.586C4.82807 101.71 4.89258 101.809 4.97781 101.881C5.06422 101.952 5.17075 101.987 5.29741 101.987ZM8.93022 103.543V102.083H8.90714C8.87163 102.159 8.82132 102.234 8.75621 102.309C8.69229 102.382 8.60884 102.443 8.50586 102.492C8.40406 102.54 8.27977 102.564 8.13299 102.564C7.92584 102.564 7.73822 102.511 7.57013 102.405C7.40323 102.297 7.27066 102.139 7.17241 101.931C7.07534 101.721 7.02681 101.464 7.02681 101.16C7.02681 100.847 7.07712 100.588 7.17773 100.38C7.27835 100.172 7.41211 100.016 7.57901 99.9135C7.7471 99.8093 7.93117 99.7572 8.13121 99.7572C8.28391 99.7572 8.41116 99.7833 8.51296 99.8354C8.61594 99.8863 8.6988 99.9502 8.76154 100.027C8.82546 100.103 8.87399 100.177 8.90714 100.251H8.9391V99.7927H9.68484V103.543H8.93022ZM8.37269 101.962C8.49461 101.962 8.5976 101.929 8.68164 101.863C8.76687 101.796 8.83197 101.701 8.87695 101.581C8.92312 101.46 8.9462 101.319 8.9462 101.156C8.9462 100.994 8.92371 100.853 8.87873 100.734C8.83375 100.614 8.76864 100.522 8.68342 100.457C8.59819 100.392 8.49461 100.359 8.37269 100.359C8.2484 100.359 8.14364 100.393 8.05842 100.46C7.97319 100.528 7.90868 100.621 7.86488 100.741C7.82108 100.86 7.79918 100.999 7.79918 101.156C7.79918 101.315 7.82108 101.455 7.86488 101.577C7.90986 101.698 7.97437 101.793 8.05842 101.861C8.14364 101.929 8.2484 101.962 8.37269 101.962ZM12.041 101.359V99.7927H12.7974V102.52H12.0712V102.025H12.0428C11.9812 102.184 11.8788 102.313 11.7356 102.41C11.5936 102.507 11.4202 102.556 11.2154 102.556C11.0331 102.556 10.8727 102.514 10.7342 102.431C10.5957 102.348 10.4874 102.231 10.4093 102.078C10.3323 101.925 10.2933 101.742 10.2921 101.529V99.7927H11.0485V101.394C11.0497 101.555 11.0929 101.683 11.1781 101.776C11.2633 101.87 11.3775 101.916 11.5208 101.916C11.6119 101.916 11.6971 101.896 11.7765 101.854C11.8558 101.812 11.9197 101.749 11.9682 101.666C12.0179 101.583 12.0422 101.481 12.041 101.359ZM14.6453 102.573C14.3648 102.573 14.1233 102.516 13.9209 102.403C13.7197 102.288 13.5646 102.126 13.4557 101.916C13.3468 101.706 13.2923 101.456 13.2923 101.169C13.2923 100.888 13.3468 100.642 13.4557 100.43C13.5646 100.218 13.7179 100.053 13.9156 99.9348C14.1144 99.8164 14.3476 99.7572 14.6151 99.7572C14.7951 99.7572 14.9626 99.7862 15.1176 99.8442C15.2739 99.9011 15.41 99.9869 15.526 100.102C15.6432 100.217 15.7343 100.361 15.7994 100.535C15.8646 100.708 15.8971 100.91 15.8971 101.142V101.35H13.5942V100.881H15.1851C15.1851 100.772 15.1614 100.676 15.1141 100.592C15.0667 100.508 15.001 100.442 14.917 100.395C14.8341 100.346 14.7377 100.322 14.6276 100.322C14.5128 100.322 14.411 100.348 14.3222 100.402C14.2346 100.454 14.1659 100.524 14.1162 100.613C14.0665 100.701 14.041 100.798 14.0399 100.906V101.352C14.0399 101.487 14.0647 101.603 14.1144 101.701C14.1653 101.8 14.2369 101.875 14.3293 101.929C14.4216 101.982 14.5311 102.009 14.6578 102.009C14.7418 102.009 14.8187 101.997 14.8886 101.973C14.9584 101.949 15.0182 101.914 15.0679 101.867C15.1176 101.819 15.1555 101.761 15.1816 101.693L15.8811 101.739C15.8456 101.907 15.7728 102.054 15.6627 102.179C15.5538 102.303 15.413 102.4 15.2401 102.47C15.0685 102.539 14.8702 102.573 14.6453 102.573ZM17.8414 99.7927V100.361H16.199V99.7927H17.8414ZM16.5718 99.1393H17.3282V101.682C17.3282 101.752 17.3389 101.806 17.3602 101.845C17.3815 101.883 17.4111 101.91 17.449 101.925C17.488 101.941 17.533 101.948 17.5839 101.948C17.6194 101.948 17.6549 101.945 17.6904 101.939C17.7259 101.932 17.7532 101.927 17.7721 101.923L17.8911 102.486C17.8532 102.498 17.7999 102.512 17.7313 102.527C17.6626 102.544 17.5792 102.554 17.4809 102.557C17.2986 102.564 17.1388 102.54 17.0015 102.485C16.8654 102.429 16.7594 102.342 16.6837 102.225C16.6079 102.108 16.5706 101.96 16.5718 101.781V99.1393Z" fill="#527A8A"/>
<path d="M1.76847 97.9528V98.521H0.0852273V97.9528H1.76847ZM0.470526 100.68V97.7557C0.470526 97.558 0.508996 97.3941 0.585938 97.2639C0.664062 97.1337 0.770597 97.036 0.90554 96.9709C1.04048 96.9058 1.19377 96.8732 1.36541 96.8732C1.48142 96.8732 1.58736 96.8821 1.68324 96.8999C1.7803 96.9176 1.85251 96.9336 1.89986 96.9478L1.76491 97.516C1.73532 97.5065 1.69863 97.4976 1.65483 97.4894C1.61222 97.4811 1.56842 97.4769 1.52344 97.4769C1.41217 97.4769 1.33464 97.503 1.29084 97.5551C1.24704 97.606 1.22514 97.6776 1.22514 97.7699V100.68H0.470526ZM2.23056 100.68V97.9528H2.96387V98.4286H2.99228C3.04199 98.2594 3.12544 98.1315 3.24263 98.0451C3.35982 97.9575 3.49476 97.9137 3.64746 97.9137C3.68534 97.9137 3.72618 97.9161 3.76998 97.9208C3.81377 97.9256 3.85224 97.9321 3.88539 97.9404V98.6115C3.84988 98.6009 3.80075 98.5914 3.73801 98.5831C3.67528 98.5748 3.61787 98.5707 3.56578 98.5707C3.45452 98.5707 3.35508 98.5949 3.26749 98.6435C3.18108 98.6908 3.11242 98.7571 3.06152 98.8423C3.01181 98.9276 2.98695 99.0258 2.98695 99.1371V100.68H2.23056ZM5.38175 100.733C5.10594 100.733 4.86742 100.675 4.66619 100.558C4.46615 100.439 4.31167 100.275 4.20277 100.064C4.09387 99.852 4.03942 99.6064 4.03942 99.3271C4.03942 99.0453 4.09387 98.7991 4.20277 98.5884C4.31167 98.3765 4.46615 98.212 4.66619 98.0948C4.86742 97.9765 5.10594 97.9173 5.38175 97.9173C5.65755 97.9173 5.89548 97.9765 6.09553 98.0948C6.29676 98.212 6.45182 98.3765 6.56072 98.5884C6.66963 98.7991 6.72408 99.0453 6.72408 99.3271C6.72408 99.6064 6.66963 99.852 6.56072 100.064C6.45182 100.275 6.29676 100.439 6.09553 100.558C5.89548 100.675 5.65755 100.733 5.38175 100.733ZM5.3853 100.147C5.51077 100.147 5.61553 100.112 5.69957 100.041C5.78362 99.9686 5.84695 99.8704 5.88956 99.7461C5.93336 99.6218 5.95526 99.4804 5.95526 99.3217C5.95526 99.1631 5.93336 99.0217 5.88956 98.8974C5.84695 98.7731 5.78362 98.6748 5.69957 98.6026C5.61553 98.5304 5.51077 98.4943 5.3853 98.4943C5.25864 98.4943 5.15211 98.5304 5.0657 98.6026C4.98047 98.6748 4.91596 98.7731 4.87216 98.8974C4.82955 99.0217 4.80824 99.1631 4.80824 99.3217C4.80824 99.4804 4.82955 99.6218 4.87216 99.7461C4.91596 99.8704 4.98047 99.9686 5.0657 100.041C5.15211 100.112 5.25864 100.147 5.3853 100.147ZM7.21591 100.68V97.9528H7.93679V98.434H7.96875C8.02557 98.2742 8.12027 98.1481 8.25284 98.0558C8.38542 97.9634 8.54403 97.9173 8.72869 97.9173C8.91572 97.9173 9.07493 97.964 9.20632 98.0575C9.33771 98.1499 9.42531 98.2753 9.46911 98.434H9.49751C9.55315 98.2777 9.65376 98.1528 9.79936 98.0593C9.94614 97.9646 10.1196 97.9173 10.3196 97.9173C10.5741 97.9173 10.7807 97.9984 10.9393 98.1605C11.0991 98.3215 11.179 98.55 11.179 98.8459V100.68H10.4244V98.995C10.4244 98.8435 10.3841 98.7299 10.3036 98.6541C10.2231 98.5784 10.1225 98.5405 10.0018 98.5405C9.86446 98.5405 9.75734 98.5843 9.6804 98.6719C9.60346 98.7583 9.56499 98.8725 9.56499 99.0146V100.68H8.83168V98.9791C8.83168 98.8453 8.79321 98.7388 8.71626 98.6595C8.64051 98.5801 8.54048 98.5405 8.41619 98.5405C8.33215 98.5405 8.25639 98.5618 8.18892 98.6044C8.12263 98.6458 8.06996 98.7044 8.03089 98.7802C7.99183 98.8548 7.9723 98.9424 7.9723 99.043V100.68H7.21591ZM14.3843 97.9528V98.521H12.7419V97.9528H14.3843ZM13.1148 97.2994H13.8712V99.842C13.8712 99.9118 13.8818 99.9663 13.9031 100.005C13.9244 100.043 13.954 100.07 13.9919 100.085C14.031 100.101 14.076 100.108 14.1269 100.108C14.1624 100.108 14.1979 100.105 14.2334 100.099C14.2689 100.092 14.2961 100.087 14.3151 100.083L14.434 100.646C14.3962 100.658 14.3429 100.672 14.2742 100.687C14.2056 100.704 14.1221 100.714 14.0239 100.717C13.8416 100.724 13.6818 100.7 13.5445 100.645C13.4084 100.589 13.3024 100.502 13.2267 100.385C13.1509 100.268 13.1136 100.12 13.1148 99.9414V97.2994ZM15.692 99.1033V100.68H14.9356V97.0437H15.6707V98.434H15.7027C15.7642 98.273 15.8637 98.1469 16.001 98.0558C16.1383 97.9634 16.3105 97.9173 16.5177 97.9173C16.7071 97.9173 16.8722 97.9587 17.0131 98.0416C17.1551 98.1232 17.2652 98.241 17.3433 98.3949C17.4226 98.5476 17.4617 98.7305 17.4605 98.9435V100.68H16.7041V99.0785C16.7053 98.9104 16.6627 98.7796 16.5763 98.6861C16.491 98.5926 16.3715 98.5458 16.2176 98.5458C16.1146 98.5458 16.0235 98.5677 15.9442 98.6115C15.866 98.6553 15.8045 98.7192 15.7595 98.8033C15.7157 98.8861 15.6932 98.9862 15.692 99.1033ZM19.2987 100.733C19.0181 100.733 18.7766 100.677 18.5742 100.563C18.373 100.448 18.2179 100.286 18.109 100.076C18.0001 99.8657 17.9457 99.6165 17.9457 99.3288C17.9457 99.0483 18.0001 98.8021 18.109 98.5902C18.2179 98.3783 18.3712 98.2132 18.5689 98.0948C18.7678 97.9765 19.0009 97.9173 19.2685 97.9173C19.4484 97.9173 19.6159 97.9463 19.771 98.0043C19.9272 98.0611 20.0633 98.1469 20.1793 98.2617C20.2965 98.3765 20.3877 98.521 20.4528 98.695C20.5179 98.8678 20.5504 99.0702 20.5504 99.3022V99.51H18.2475V99.0412H19.8384C19.8384 98.9323 19.8147 98.8358 19.7674 98.7518C19.7201 98.6677 19.6544 98.602 19.5703 98.5547C19.4875 98.5062 19.391 98.4819 19.2809 98.4819C19.1661 98.4819 19.0643 98.5085 18.9755 98.5618C18.8879 98.6139 18.8192 98.6843 18.7695 98.7731C18.7198 98.8607 18.6944 98.9583 18.6932 99.0661V99.5117C18.6932 99.6467 18.718 99.7633 18.7678 99.8615C18.8187 99.9598 18.8903 100.036 18.9826 100.089C19.0749 100.142 19.1844 100.169 19.3111 100.169C19.3951 100.169 19.4721 100.157 19.5419 100.133C19.6117 100.11 19.6715 100.074 19.7212 100.027C19.771 99.9793 19.8088 99.9213 19.8349 99.8526L20.5344 99.8988C20.4989 100.067 20.4261 100.214 20.3161 100.339C20.2071 100.463 20.0663 100.56 19.8935 100.63C19.7218 100.699 19.5236 100.733 19.2987 100.733ZM25.257 97.0437V100.68H24.593L23.0109 98.3913H22.9843V100.68H22.2155V97.0437H22.8902L24.4598 99.3306H24.4917V97.0437H25.257ZM27.1103 100.733C26.8345 100.733 26.5959 100.675 26.3947 100.558C26.1947 100.439 26.0402 100.275 25.9313 100.064C25.8224 99.852 25.7679 99.6064 25.7679 99.3271C25.7679 99.0453 25.8224 98.7991 25.9313 98.5884C26.0402 98.3765 26.1947 98.212 26.3947 98.0948C26.5959 97.9765 26.8345 97.9173 27.1103 97.9173C27.3861 97.9173 27.624 97.9765 27.824 98.0948C28.0253 98.212 28.1803 98.3765 28.2892 98.5884C28.3981 98.7991 28.4526 99.0453 28.4526 99.3271C28.4526 99.6064 28.3981 99.852 28.2892 100.064C28.1803 100.275 28.0253 100.439 27.824 100.558C27.624 100.675 27.3861 100.733 27.1103 100.733ZM27.1138 100.147C27.2393 100.147 27.344 100.112 27.4281 100.041C27.5121 99.9686 27.5755 99.8704 27.6181 99.7461C27.6619 99.6218 27.6838 99.4804 27.6838 99.3217C27.6838 99.1631 27.6619 99.0217 27.6181 98.8974C27.5755 98.7731 27.5121 98.6748 27.4281 98.6026C27.344 98.5304 27.2393 98.4943 27.1138 98.4943C26.9872 98.4943 26.8806 98.5304 26.7942 98.6026C26.709 98.6748 26.6445 98.7731 26.6007 98.8974C26.5581 99.0217 26.5368 99.1631 26.5368 99.3217C26.5368 99.4804 26.5581 99.6218 26.6007 99.7461C26.6445 99.8704 26.709 99.9686 26.7942 100.041C26.8806 100.112 26.9872 100.147 27.1138 100.147ZM30.6934 99.5188V97.9528H31.4498V100.68H30.7235V100.185H30.6951C30.6336 100.344 30.5312 100.473 30.388 100.57C30.2459 100.667 30.0725 100.716 29.8677 100.716C29.6854 100.716 29.525 100.674 29.3865 100.591C29.248 100.508 29.1397 100.391 29.0616 100.238C28.9847 100.085 28.9456 99.9024 28.9444 99.6893V97.9528H29.7008V99.5543C29.702 99.7153 29.7452 99.8426 29.8304 99.9361C29.9157 100.03 30.0299 100.076 30.1731 100.076C30.2643 100.076 30.3495 100.056 30.4288 100.014C30.5081 99.9716 30.572 99.9089 30.6206 99.826C30.6703 99.7431 30.6945 99.6408 30.6934 99.5188ZM32.8112 99.1033V100.68H32.0548V97.9528H32.7757V98.434H32.8076C32.868 98.2753 32.9692 98.1499 33.1112 98.0575C33.2533 97.964 33.4255 97.9173 33.6279 97.9173C33.8173 97.9173 33.9825 97.9587 34.1233 98.0416C34.2642 98.1244 34.3737 98.2428 34.4518 98.3967C34.5299 98.5494 34.569 98.7317 34.569 98.9435V100.68H33.8126V99.0785C33.8138 98.9116 33.7712 98.7814 33.6847 98.6879C33.5983 98.5932 33.4794 98.5458 33.3279 98.5458C33.2261 98.5458 33.1361 98.5677 33.058 98.6115C32.981 98.6553 32.9207 98.7192 32.8769 98.8033C32.8343 98.8861 32.8124 98.9862 32.8112 99.1033ZM0.316051 106.68V103.044H1.75071C2.02652 103.044 2.26148 103.096 2.45561 103.202C2.64974 103.306 2.7977 103.451 2.8995 103.637C3.00249 103.821 3.05398 104.034 3.05398 104.276C3.05398 104.517 3.00189 104.73 2.89773 104.915C2.79356 105.1 2.64264 105.244 2.44496 105.347C2.24846 105.45 2.01054 105.501 1.73118 105.501H0.816761V104.885H1.60689C1.75485 104.885 1.87678 104.86 1.97266 104.809C2.06972 104.757 2.14193 104.685 2.18928 104.594C2.23781 104.501 2.26207 104.395 2.26207 104.276C2.26207 104.155 2.23781 104.05 2.18928 103.96C2.14193 103.869 2.06972 103.798 1.97266 103.749C1.87559 103.698 1.75249 103.672 1.60334 103.672H1.08487V106.68H0.316051ZM3.53915 106.68V103.953H4.27246V104.429H4.30087C4.35059 104.259 4.43404 104.132 4.55123 104.045C4.66841 103.958 4.80336 103.914 4.95605 103.914C4.99393 103.914 5.03477 103.916 5.07857 103.921C5.12237 103.926 5.16084 103.932 5.19398 103.94V104.612C5.15847 104.601 5.10935 104.591 5.04661 104.583C4.98387 104.575 4.92646 104.571 4.87438 104.571C4.76311 104.571 4.66368 104.595 4.57608 104.643C4.48967 104.691 4.42102 104.757 4.37012 104.842C4.3204 104.928 4.29554 105.026 4.29554 105.137V106.68H3.53915ZM6.69034 106.733C6.41454 106.733 6.17602 106.675 5.97479 106.558C5.77474 106.439 5.62027 106.275 5.51136 106.064C5.40246 105.852 5.34801 105.606 5.34801 105.327C5.34801 105.045 5.40246 104.799 5.51136 104.588C5.62027 104.377 5.77474 104.212 5.97479 104.095C6.17602 103.976 6.41454 103.917 6.69034 103.917C6.96615 103.917 7.20407 103.976 7.40412 104.095C7.60535 104.212 7.76042 104.377 7.86932 104.588C7.97822 104.799 8.03267 105.045 8.03267 105.327C8.03267 105.606 7.97822 105.852 7.86932 106.064C7.76042 106.275 7.60535 106.439 7.40412 106.558C7.20407 106.675 6.96615 106.733 6.69034 106.733ZM6.69389 106.147C6.81937 106.147 6.92412 106.112 7.00817 106.041C7.09221 105.969 7.15554 105.87 7.19815 105.746C7.24195 105.622 7.26385 105.48 7.26385 105.322C7.26385 105.163 7.24195 105.022 7.19815 104.897C7.15554 104.773 7.09221 104.675 7.00817 104.603C6.92412 104.53 6.81937 104.494 6.69389 104.494C6.56723 104.494 6.4607 104.53 6.37429 104.603C6.28906 104.675 6.22455 104.773 6.18075 104.897C6.13814 105.022 6.11683 105.163 6.11683 105.322C6.11683 105.48 6.13814 105.622 6.18075 105.746C6.22455 105.87 6.28906 105.969 6.37429 106.041C6.4607 106.112 6.56723 106.147 6.69389 106.147ZM8.5245 103.953H9.28089V106.815C9.28089 107.026 9.23946 107.196 9.15661 107.326C9.07375 107.457 8.95478 107.552 8.79972 107.612C8.64583 107.673 8.46177 107.703 8.24751 107.703C8.22147 107.703 8.19661 107.702 8.17294 107.701C8.14808 107.701 8.12204 107.7 8.09482 107.699V107.108C8.11494 107.109 8.13269 107.11 8.14808 107.11C8.16229 107.111 8.17768 107.112 8.19425 107.112C8.31617 107.112 8.4014 107.085 8.44993 107.033C8.49964 106.982 8.5245 106.906 8.5245 106.803V103.953ZM8.90092 103.601C8.78965 103.601 8.69377 103.564 8.61328 103.489C8.53279 103.414 8.49254 103.323 8.49254 103.218C8.49254 103.114 8.53279 103.024 8.61328 102.95C8.69377 102.874 8.78965 102.836 8.90092 102.836C9.01456 102.836 9.11103 102.874 9.19034 102.95C9.27083 103.024 9.31108 103.114 9.31108 103.218C9.31108 103.323 9.27083 103.414 9.19034 103.489C9.11103 103.564 9.01456 103.601 8.90092 103.601ZM11.1297 106.733C10.8492 106.733 10.6077 106.677 10.4053 106.563C10.204 106.448 10.049 106.286 9.94007 106.076C9.83117 105.866 9.77672 105.616 9.77672 105.329C9.77672 105.048 9.83117 104.802 9.94007 104.59C10.049 104.378 10.2023 104.213 10.3999 104.095C10.5988 103.976 10.832 103.917 11.0995 103.917C11.2794 103.917 11.4469 103.946 11.602 104.004C11.7583 104.061 11.8944 104.147 12.0104 104.262C12.1276 104.377 12.2187 104.521 12.2838 104.695C12.3489 104.868 12.3815 105.07 12.3815 105.302V105.51H10.0786V105.041H11.6695C11.6695 104.932 11.6458 104.836 11.5985 104.752C11.5511 104.668 11.4854 104.602 11.4014 104.555C11.3185 104.506 11.222 104.482 11.1119 104.482C10.9971 104.482 10.8953 104.509 10.8066 104.562C10.719 104.614 10.6503 104.684 10.6006 104.773C10.5509 104.861 10.5254 104.958 10.5242 105.066V105.512C10.5242 105.647 10.5491 105.763 10.5988 105.862C10.6497 105.96 10.7213 106.036 10.8137 106.089C10.906 106.142 11.0155 106.169 11.1421 106.169C11.2262 106.169 11.3031 106.157 11.373 106.133C11.4428 106.11 11.5026 106.074 11.5523 106.027C11.602 105.979 11.6399 105.921 11.6659 105.853L12.3655 105.899C12.33 106.067 12.2572 106.214 12.1471 106.339C12.0382 106.463 11.8973 106.56 11.7245 106.63C11.5529 106.699 11.3546 106.733 11.1297 106.733ZM14.1073 106.733C13.828 106.733 13.5877 106.674 13.3865 106.556C13.1864 106.436 13.0325 106.27 12.9248 106.059C12.8183 105.847 12.765 105.603 12.765 105.327C12.765 105.048 12.8189 104.803 12.9266 104.592C13.0355 104.38 13.19 104.215 13.39 104.097C13.5901 103.977 13.828 103.917 14.1038 103.917C14.3417 103.917 14.55 103.96 14.7288 104.047C14.9075 104.133 15.049 104.255 15.1531 104.411C15.2573 104.567 15.3147 104.751 15.3254 104.961H14.6116C14.5915 104.825 14.5382 104.716 14.4518 104.633C14.3666 104.549 14.2547 104.507 14.1162 104.507C13.999 104.507 13.8966 104.539 13.809 104.603C13.7226 104.665 13.6552 104.757 13.6066 104.878C13.5581 104.999 13.5338 105.145 13.5338 105.316C13.5338 105.49 13.5575 105.638 13.6048 105.76C13.6534 105.882 13.7214 105.975 13.809 106.039C13.8966 106.103 13.999 106.135 14.1162 106.135C14.2026 106.135 14.2802 106.117 14.3488 106.082C14.4186 106.046 14.4761 105.995 14.521 105.927C14.5672 105.859 14.5974 105.776 14.6116 105.68H15.3254C15.3135 105.889 15.2567 106.072 15.1549 106.231C15.0543 106.388 14.9152 106.511 14.7377 106.6C14.5601 106.689 14.35 106.733 14.1073 106.733ZM17.2603 103.953V104.521H15.6179V103.953H17.2603ZM15.9908 103.299H16.7472V105.842C16.7472 105.912 16.7578 105.966 16.7791 106.005C16.8004 106.043 16.83 106.07 16.8679 106.085C16.907 106.101 16.9519 106.108 17.0028 106.108C17.0384 106.108 17.0739 106.105 17.1094 106.099C17.1449 106.092 17.1721 106.087 17.1911 106.083L17.31 106.646C17.2721 106.658 17.2189 106.672 17.1502 106.687C17.0816 106.704 16.9981 106.714 16.8999 106.717C16.7176 106.724 16.5578 106.7 16.4205 106.645C16.2843 106.589 16.1784 106.502 16.1026 106.385C16.0269 106.268 15.9896 106.12 15.9908 105.941V103.299Z" fill="#527A8A"/>
</g>
<defs>
<clipPath id="clip0_456_182">
<rect width="89" height="104" fill="white"/>
</clipPath>
</defs>
</svg>
