<svg width="324" height="348" viewBox="0 0 324 348" fill="none" xmlns="http://www.w3.org/2000/svg">
<path d="M324 139.307C324 140.292 323.062 141.098 321.916 141.098H303.081V142.924C303.081 143.658 302.393 144.267 301.518 144.267C300.643 144.267 299.955 143.658 299.955 142.924V141.098H268.159V142.924C268.159 143.658 267.472 144.267 266.597 144.267C265.722 144.267 265.034 143.658 265.034 142.924V141.098H233.217V142.924C233.217 143.658 232.509 144.267 231.655 144.267C230.801 144.267 230.092 143.658 230.092 142.924V141.098H198.317V142.888C198.317 143.64 197.609 144.231 196.754 144.231C195.9 144.231 195.192 143.64 195.192 142.888V141.098H164.084V167.971H166.167C167.021 167.971 167.73 168.562 167.73 169.314C167.73 170.066 167.021 170.657 166.167 170.657H164.084V197.995H166.167C167.021 197.995 167.73 198.604 167.73 199.338C167.73 200.072 167.021 200.681 166.167 200.681H164.084V228.019H166.167C167.021 228.019 167.73 228.61 167.73 229.362C167.73 230.114 167.021 230.705 166.167 230.705H164.084V258.044H166.167C167.021 258.044 167.73 258.634 167.73 259.386C167.73 260.138 167.021 260.729 166.167 260.729H164.084V276.717C164.084 277.702 163.146 278.507 162 278.507C160.854 278.507 159.916 277.702 159.916 276.717V260.729H157.833C156.979 260.729 156.27 260.12 156.27 259.386C156.27 258.652 156.979 258.044 157.833 258.044H159.916V230.705H157.833C156.979 230.705 156.27 230.096 156.27 229.362C156.27 228.628 156.979 228.019 157.833 228.019H159.916V200.681H157.833C156.979 200.681 156.27 200.09 156.27 199.338C156.27 198.586 156.979 197.995 157.833 197.995H159.916V170.657H157.833C156.979 170.657 156.27 170.048 156.27 169.314C156.27 168.58 156.979 167.971 157.833 167.971H159.916V141.098H128.579V142.924C128.579 143.658 127.871 144.267 127.016 144.267C126.162 144.267 125.454 143.658 125.454 142.924V141.098H93.637V142.924C93.637 143.658 92.9286 144.267 92.0743 144.267C91.2201 144.267 90.5116 143.658 90.5116 142.924V141.098H58.695V142.924C58.695 143.658 58.0075 144.267 57.1323 144.267C56.2572 144.267 55.5696 143.658 55.5696 142.924V141.098H23.7531V142.924C23.7531 143.658 23.0655 144.267 22.1904 144.267C21.3152 144.267 20.6277 143.658 20.6277 142.924V141.098H2.0836C0.937621 141.098 0 140.292 0 139.307C0 138.323 0.937621 137.517 2.0836 137.517H20.6277V135.745C20.6277 135.011 21.3361 134.402 22.1904 134.402C23.0446 134.402 23.7531 135.011 23.7531 135.745V137.517H55.5696V135.745C55.5696 135.011 56.2781 134.402 57.1323 134.402C57.9866 134.402 58.695 135.011 58.695 135.745V137.517H90.5116V135.745C90.5116 135.011 91.1992 134.402 92.0743 134.402C92.9494 134.402 93.637 135.011 93.637 135.745V137.517H125.454V135.745C125.454 135.011 126.162 134.402 127.016 134.402C127.871 134.402 128.579 135.011 128.579 135.745V137.517H158.958C158.958 134.903 159.291 132.486 159.916 130.248V110.071H157.833C156.979 110.071 156.27 109.462 156.27 108.728C156.27 107.994 156.979 107.385 157.833 107.385H159.916V80.0467H157.833C156.979 80.0467 156.27 79.438 156.27 78.7039C156.27 77.9699 156.979 77.3612 157.833 77.3612H159.916V50.0225H157.833C156.979 50.0225 156.27 49.4317 156.27 48.6797C156.27 47.9278 156.979 47.337 157.833 47.337H159.916V19.9983H157.833C156.979 19.9983 156.27 19.3895 156.27 18.6555C156.27 17.9214 156.979 17.3127 157.833 17.3127H159.916V1.89778C159.916 0.913081 160.854 0.107422 162 0.107422C163.146 0.107422 164.084 0.913081 164.084 1.89778V17.3127H166.167C167.021 17.3127 167.73 17.9214 167.73 18.6555C167.73 19.3895 167.021 19.9983 166.167 19.9983H164.084V47.337H166.167C167.021 47.337 167.73 47.9457 167.73 48.6797C167.73 49.4138 167.021 50.0225 166.167 50.0225H164.084V77.3612H166.167C167.021 77.3612 167.73 77.952 167.73 78.7039C167.73 79.4559 167.021 80.0467 166.167 80.0467H164.084V107.385H166.167C167.021 107.385 167.73 107.976 167.73 108.728C167.73 109.48 167.021 110.071 166.167 110.071H164.084V121.995C175.252 107.529 203.151 102.802 232.322 97.8607C236.03 97.2341 239.802 96.6075 243.573 95.9451C285.12 88.6404 319.041 86.116 319.374 86.0802C321.104 85.9549 322.604 87.0649 322.75 88.533C322.771 88.6225 322.771 88.6941 322.771 88.7657C322.771 90.1443 321.541 91.3259 319.916 91.4334C319.583 91.4692 285.995 93.9578 244.823 101.209C241.031 101.871 237.26 102.498 233.53 103.142C196.859 109.337 165.209 114.708 165.209 137.517H195.192V135.727C195.192 134.993 195.879 134.384 196.754 134.384C197.63 134.384 198.317 134.993 198.317 135.727V137.517H230.092V135.745C230.092 135.011 230.801 134.402 231.655 134.402C232.509 134.402 233.217 135.011 233.217 135.745V137.517H265.034V135.745C265.034 135.011 265.742 134.402 266.597 134.402C267.451 134.402 268.159 135.011 268.159 135.745V137.517H299.955V135.745C299.955 135.011 300.664 134.402 301.518 134.402C302.372 134.402 303.081 135.011 303.081 135.745V137.517H321.916C323.062 137.517 324 138.323 324 139.307Z" fill="black"/>

</svg>
