<svg width="274" height="284" viewBox="0 0 274 284" fill="none" xmlns="http://www.w3.org/2000/svg">
<path d="M272.238 210.061H256.327V208.615C256.327 208.016 255.727 207.519 255.005 207.519C254.283 207.519 253.683 208.016 253.683 208.615V210.061H226.794V208.615C226.794 208.016 226.195 207.519 225.473 207.519C224.75 207.519 224.151 208.016 224.151 208.615V210.061H199.87C199.765 171.401 164.7 136.875 145.846 118.319C144.401 116.902 143.044 115.558 141.775 114.301C141.828 114.184 141.863 114.053 141.863 113.921C141.863 113.322 141.264 112.826 140.542 112.826H140.295C139.766 112.285 139.255 111.774 138.78 111.262V89.7403H140.542C141.264 89.7403 141.863 89.2436 141.863 88.6445C141.863 88.0455 141.264 87.5487 140.542 87.5487H138.78V65.2378H140.542C141.264 65.2378 141.863 64.741 141.863 64.142C141.863 63.5429 141.264 63.0462 140.542 63.0462H138.78V40.7499H140.542C141.264 40.7499 141.863 40.2531 141.863 39.6541C141.863 39.055 141.264 38.5582 140.542 38.5582H138.78V16.2474H140.542C141.264 16.2474 141.863 15.7506 141.863 15.1515C141.863 14.5525 141.264 14.0557 140.542 14.0557H138.78V1.46109C138.762 0.657492 137.969 0 137 0C136.031 0 135.238 0.657492 135.238 1.46109V14.0411H133.476C132.753 14.0411 132.154 14.5379 132.154 15.1369C132.154 15.736 132.753 16.2327 133.476 16.2327H135.238V38.5436H133.476C132.753 38.5436 132.154 39.0404 132.154 39.6395C132.154 40.2385 132.753 40.7353 133.476 40.7353H135.238V63.0316H133.476C132.753 63.0316 132.154 63.5283 132.154 64.1274C132.154 64.7264 132.753 65.2232 133.476 65.2232H135.238V87.5341H133.476C132.753 87.5341 132.154 88.0309 132.154 88.6299C132.154 89.229 132.753 89.7257 133.476 89.7257H135.238V107.434C132.26 104.118 128.895 100.567 125.3 96.7974C104.666 75.1148 76.4028 45.4254 76.4028 10.3007C76.4028 9.088 75.2223 8.10907 73.7597 8.10907C72.2972 8.10907 71.1167 9.088 71.1167 10.3007C71.1167 46.9449 100.05 77.3211 121.159 99.5151C125.124 103.679 128.859 107.61 132.013 111.175C132.472 111.686 132.983 112.241 133.529 112.826H133.494C132.771 112.826 132.172 113.322 132.172 113.921C132.172 114.52 132.771 115.017 133.494 115.017H135.256V136.992H133.494C132.771 136.992 132.172 137.489 132.172 138.088C132.172 138.687 132.771 139.184 133.494 139.184H135.256V161.495H133.494C132.771 161.495 132.172 161.991 132.172 162.59C132.172 163.189 132.771 163.686 133.494 163.686H135.256V185.983H133.494C132.771 185.983 132.172 186.479 132.172 187.078C132.172 187.677 132.771 188.174 133.494 188.174H135.256V210.061H108.754V208.615C108.754 208.016 108.155 207.519 107.433 207.519C106.71 207.519 106.111 208.016 106.111 208.615V210.061H79.2045V208.615C79.2045 208.016 78.6054 207.519 77.883 207.519C77.1605 207.519 76.5614 208.016 76.5614 208.615V210.061H49.6724V208.615C49.6724 208.016 49.0733 207.519 48.3509 207.519C47.6284 207.519 47.0293 208.016 47.0293 208.615V210.061H20.1227V208.615C20.1227 208.016 19.5236 207.519 18.8012 207.519C18.0787 207.519 17.4796 208.016 17.4796 208.615V210.061H1.76206C0.792926 210.061 0 210.719 0 211.522C0 212.326 0.792926 212.984 1.76206 212.984H17.4444V214.459C17.4444 215.058 18.0435 215.555 18.7659 215.555C19.4884 215.555 20.0875 215.058 20.0875 214.459V212.984H46.9941V214.459C46.9941 215.058 47.5932 215.555 48.3156 215.555C49.0381 215.555 49.6372 215.058 49.6372 214.459V212.984H76.5262V214.459C76.5262 215.058 77.1253 215.555 77.8477 215.555C78.5702 215.555 79.1693 215.058 79.1693 214.459V212.984H106.076V214.459C106.076 215.058 106.675 215.555 107.397 215.555C108.12 215.555 108.719 215.058 108.719 214.459V212.984H135.22V225.739C135.22 226.542 136.013 227.2 136.982 227.2C137.952 227.2 138.744 226.542 138.744 225.739V212.984H165.052V214.445C165.052 215.044 165.651 215.54 166.374 215.54C167.096 215.54 167.695 215.044 167.695 214.445V212.984H194.566V214.459C194.566 215.058 195.166 215.555 195.888 215.555C196.61 215.555 197.21 215.058 197.21 214.459V212.984H224.116V214.459C224.116 215.058 224.715 215.555 225.438 215.555C226.16 215.555 226.759 215.058 226.759 214.459V212.984H253.648V214.459C253.648 215.058 254.247 215.555 254.97 215.555C255.692 215.555 256.291 215.058 256.291 214.459V212.984H272.203C273.172 212.984 273.965 212.326 273.965 211.522C273.965 210.719 273.172 210.061 272.203 210.061H272.238ZM166.391 207.504C165.669 207.504 165.07 208.001 165.07 208.6V210.061H138.762V188.174H140.524C141.247 188.174 141.846 187.677 141.846 187.078C141.846 186.479 141.247 185.983 140.524 185.983H138.762V163.686H140.524C141.247 163.686 141.846 163.189 141.846 162.59C141.846 161.991 141.247 161.495 140.524 161.495H138.762V139.184H140.524C141.247 139.184 141.846 138.687 141.846 138.088C141.846 137.489 141.247 136.992 140.524 136.992H138.762V118.173C139.731 119.123 140.736 120.116 141.775 121.154C161.493 140.557 194.461 173.023 194.566 210.076H167.713V208.615C167.713 208.016 167.114 207.519 166.391 207.519V207.504Z" fill="black"/>
</svg>
