<svg width="131" height="162" viewBox="0 0 131 162" fill="none" xmlns="http://www.w3.org/2000/svg">
<path d="M51.7115 31.542C50.6369 31.317 49.646 31.5045 48.8831 32.0858C48.1202 32.667 47.669 33.6185 47.627 34.7061C47.5852 35.7936 47.9341 37.0217 48.7203 38.3154C50.5159 41.2732 54.7911 47.0154 58.6522 52.0686C62.2994 56.8406 65.179 60.4874 65.5278 60.9327L63.8671 62.5077C63.4344 61.9967 59.2384 57.0186 54.0467 50.9764C48.5946 44.6342 42.5889 37.744 40.156 35.3524C37.8764 33.1118 34.9736 33.1961 33.2384 34.6821C31.5033 36.168 31.0333 39.0368 33.0803 41.6337C37.2624 46.94 56.8151 69.5577 57.4749 70.3161L56.1816 71.7833C55.7118 71.2536 51.5762 66.5943 46.4171 60.988C43.6957 58.0302 40.8301 54.9646 38.346 52.4146C35.8619 49.8646 33.7917 47.8583 32.5264 46.9209C31.2052 45.9459 29.9957 45.4818 28.9165 45.4725C27.8372 45.4631 26.9068 45.9647 26.3392 46.7381C25.2088 48.285 25.3437 50.7131 26.73 52.7944C31.9217 60.5897 47.771 78.2572 48.5856 79.1668L46.7992 80.8731C46.3247 80.3809 41.0958 74.9434 35.5414 69.5012C34.425 68.409 33.4202 67.7668 32.4944 67.4949C31.5686 67.223 30.6894 67.359 30.0474 67.7855C28.7635 68.6433 28.4285 70.3449 28.8565 71.7183C29.9869 75.337 33.4852 79.898 36.7091 83.6667C39.933 87.4354 42.8916 90.3604 42.8916 90.3604L42.9242 90.3932C60.9319 105.974 76.6555 112.288 76.8972 112.387L85.5034 120.524C85.7733 120.782 86.1966 120.787 86.4711 120.534L111.271 97.9964C111.55 97.7433 111.587 97.3214 111.359 97.0214L106.284 90.3511C106.256 90.1449 104.362 76.8091 102.999 66.6835C102.99 66.6085 102.967 66.5382 102.934 66.4679L96.3889 52.5371C96.3889 52.5324 96.3842 52.5324 96.3842 52.5277L91.0437 41.6058C90.6669 40.8323 90.0156 40.3214 89.3132 40.1574C88.6108 39.9933 87.899 40.1293 87.2477 40.4011C85.9404 40.9402 84.7868 42.0042 84.2704 43.2184C82.3166 47.8309 83.3447 53.1464 84.5867 57.5476C85.1171 59.4319 85.2659 60.4398 85.2241 61.0069C85.2055 61.246 85.0333 61.4101 84.9636 61.5741L75.5759 52.9585L75.5712 52.9538C75.5619 52.9444 58.2328 36.6602 55.0328 33.491C53.9442 32.4082 52.7862 31.767 51.7115 31.542ZM51.4835 32.953C52.2186 33.117 53.0932 33.5858 54.0328 34.5186C57.3264 37.7812 74.6034 54.0138 74.6034 54.0138L74.608 54.0185L84.2517 62.8732C84.2796 62.8966 84.3075 62.9201 84.3354 62.9388C81.2837 67.4248 79.1857 72.5528 81.628 82.7664C81.6745 82.9539 81.7861 83.1133 81.949 83.2117C82.1118 83.3101 82.3072 83.343 82.4932 83.3008C82.6747 83.2539 82.8328 83.1367 82.9352 82.9727C83.0329 82.8086 83.0654 82.6164 83.0189 82.4289C80.5534 72.107 82.6281 67.6497 85.7729 63.1821C86.1683 62.6196 86.5777 62.0243 86.6475 61.1195C86.7172 60.2149 86.5126 59.0899 85.9636 57.1492C84.7495 52.8461 83.8656 47.8539 85.5868 43.7848C85.8892 43.0723 86.8661 42.1161 87.7919 41.7317C88.2524 41.5396 88.6804 41.488 88.9921 41.5583C89.3038 41.6286 89.5364 41.7833 89.7597 42.238L95.1002 53.1599L101.594 66.9923C102.967 77.1876 104.888 90.7391 104.888 90.7391C104.907 90.861 104.958 90.9735 105.032 91.0719L109.819 97.3719L86.0008 119.024L77.8086 111.27C77.7435 111.21 77.6644 111.158 77.5807 111.125C77.5807 111.125 61.8428 104.858 43.8672 89.3043C43.8626 89.2997 43.8579 89.3043 43.8579 89.2997C43.83 89.2715 40.9551 86.4263 37.7917 82.7277C34.6143 79.0105 31.1905 74.3981 30.2182 71.2855C29.9717 70.498 30.2601 69.3683 30.8369 68.9839C31.1254 68.7917 31.4836 68.698 32.093 68.8761C32.7024 69.0542 33.5351 69.5464 34.5399 70.5308C40.3224 76.1933 46.2769 82.3808 46.2769 82.3808C46.5514 82.662 46.998 82.6714 47.2818 82.3995L50.0683 79.7323C50.352 79.4651 50.366 79.0151 50.1055 78.7245C50.1055 78.7245 33.0374 59.6793 27.9153 51.9921C26.7988 50.3187 26.8453 48.4671 27.4873 47.5905C27.8083 47.1498 28.2363 46.9061 28.9061 46.9108C29.576 46.9155 30.5204 47.2248 31.6787 48.0826C32.7486 48.8748 34.856 50.8952 37.3262 53.4264C39.7964 55.9576 42.6528 59.0138 45.3695 61.967C50.803 67.8686 55.6504 73.3389 55.6504 73.3389C55.7853 73.4936 55.9807 73.5827 56.1854 73.5827C56.39 73.5827 56.5854 73.4936 56.7203 73.3389L58.9579 70.803C59.1952 70.5311 59.1998 70.1233 58.9626 69.8514C58.9626 69.8514 38.3265 45.9738 34.2 40.737C32.5113 38.5948 32.9859 36.7854 34.1628 35.7776C35.3397 34.7699 37.3075 34.5636 39.159 36.3823C41.4478 38.6277 47.5186 45.5793 52.9664 51.9163C58.4139 58.2538 63.2659 64.0099 63.2659 64.0099C63.3915 64.1599 63.5776 64.2537 63.7729 64.2677C63.9683 64.2771 64.1591 64.2068 64.3033 64.0709L66.9828 61.5302C67.2573 61.2724 67.2852 60.8505 67.0526 60.5552C67.0526 60.5552 63.638 56.2333 59.7861 51.1896C55.9343 46.1459 51.6312 40.3521 49.9379 37.5636C49.268 36.4573 49.0261 35.487 49.054 34.7558C49.082 34.0246 49.3518 33.5371 49.7472 33.2324C50.1426 32.9277 50.7474 32.7871 51.4823 32.9512L51.4835 32.953Z" fill="black"/>
<path d="M51.6137 26.4564C51.423 26.447 51.2369 26.5173 51.0973 26.6486C50.9578 26.7752 50.8787 26.958 50.8694 27.1455C50.8647 27.3377 50.9298 27.5252 51.0601 27.6658C51.1904 27.8064 51.3671 27.8908 51.5579 27.8955C55.2097 28.2236 57.2659 30.1408 59.5453 33.0985C59.7872 33.4126 60.2384 33.4688 60.5501 33.2251C60.8618 32.9814 60.9176 32.5267 60.6757 32.2126C58.3171 29.147 55.8004 26.8313 51.6881 26.461C51.6648 26.4563 51.637 26.4564 51.6137 26.4564Z" fill="black"/>
<path d="M56.1821 23.2781C55.8239 23.2875 55.5308 23.564 55.4936 23.925C55.4564 24.2859 55.689 24.614 56.0379 24.6984C58.0197 25.2093 59.6153 26.0343 60.7318 27.6797C60.8341 27.8531 60.9969 27.975 61.1923 28.0172C61.3877 28.0594 61.5877 28.0219 61.7506 27.9094C61.9134 27.7969 62.025 27.6187 62.0529 27.4219C62.0855 27.225 62.0297 27.0234 61.9087 26.8687C60.555 24.8718 58.5639 23.8594 56.3915 23.3015C56.3217 23.2827 56.2519 23.2734 56.1821 23.2781Z" fill="black"/>
<path d="M24.3864 69.3517C24.0189 69.3751 23.7304 69.6798 23.7211 70.0501C23.5816 73.3501 24.4608 77.6532 27.1171 80.1001C27.4102 80.3673 27.8615 80.3485 28.1313 80.0532C28.3964 79.7626 28.3778 79.3032 28.0847 79.036C25.9541 77.0767 25.0237 73.0783 25.1494 70.111C25.1633 69.9048 25.0843 69.7032 24.9401 69.5579C24.7912 69.4126 24.591 69.3376 24.3864 69.3517Z" fill="black"/>
<path d="M20.2263 71.7276C19.8588 71.737 19.5564 72.0276 19.5332 72.3979C19.3145 75.0463 20.0077 77.5916 21.2219 79.8745C21.301 80.0573 21.4545 80.1979 21.6452 80.2589C21.8313 80.3245 22.036 80.3104 22.2128 80.212C22.3849 80.1182 22.5152 79.9542 22.5663 79.762C22.6175 79.5698 22.5849 79.3636 22.4779 79.1948C21.3661 77.1042 20.7706 74.8448 20.9614 72.5198C20.98 72.3135 20.9149 72.1073 20.7707 71.9573C20.6311 71.8026 20.431 71.7229 20.2263 71.7276Z" fill="black"/>
<path d="M72.6456 69.3564C72.5339 69.3611 72.4223 69.3986 72.3246 69.4548C65.2582 73.4861 60.4806 81.6612 57.3132 87.3372C57.1178 87.6841 57.2388 88.1247 57.583 88.3169C57.9319 88.5138 58.3645 88.3919 58.5599 88.045C61.7093 82.3966 66.4543 74.461 73.0318 70.7062C73.3249 70.5422 73.4691 70.2 73.3761 69.8765C73.283 69.5531 72.9805 69.3376 72.6456 69.3564Z" fill="black"/>
<path d="M9.47909 149.637H8.70139C8.68719 149.536 8.65819 149.447 8.61439 149.369C8.57059 149.289 8.51437 149.222 8.44571 149.166C8.37706 149.111 8.29775 149.068 8.20779 149.038C8.11901 149.009 8.02253 148.994 7.91837 148.994C7.73016 148.994 7.56621 149.041 7.42654 149.134C7.28686 149.227 7.17855 149.362 7.10161 149.539C7.02467 149.715 6.98619 149.93 6.98619 150.182C6.98619 150.441 7.02467 150.659 7.10161 150.835C7.17973 151.012 7.28863 151.145 7.42831 151.235C7.56799 151.325 7.72957 151.37 7.91304 151.37C8.01602 151.37 8.11131 151.356 8.19891 151.329C8.28769 151.302 8.3664 151.262 8.43506 151.21C8.50371 151.157 8.56053 151.092 8.60551 151.016C8.65168 150.941 8.68364 150.854 8.70139 150.757L9.47909 150.761C9.45897 150.928 9.40866 151.089 9.32817 151.244C9.24886 151.397 9.14173 151.535 9.00679 151.657C8.87303 151.778 8.71323 151.874 8.52739 151.945C8.34273 152.015 8.1338 152.05 7.90061 152.05C7.57628 152.05 7.28627 151.976 7.03058 151.83C6.77609 151.683 6.57486 151.47 6.42689 151.192C6.28011 150.914 6.20672 150.577 6.20672 150.182C6.20672 149.785 6.28129 149.448 6.43044 149.17C6.57959 148.892 6.782 148.68 7.03769 148.534C7.29337 148.387 7.58101 148.314 7.90061 148.314C8.11131 148.314 8.30663 148.344 8.48655 148.403C8.66766 148.462 8.82805 148.548 8.96773 148.662C9.10741 148.774 9.22104 148.912 9.30864 149.076C9.39742 149.239 9.45423 149.426 9.47909 149.637ZM10.0162 152V149.273H10.7495V149.749H10.7779C10.8276 149.579 10.9111 149.451 11.0283 149.365C11.1455 149.277 11.2804 149.234 11.4331 149.234C11.471 149.234 11.5118 149.236 11.5556 149.241C11.5994 149.246 11.6379 149.252 11.671 149.26V149.931C11.6355 149.921 11.5864 149.911 11.5237 149.903C11.4609 149.895 11.4035 149.891 11.3514 149.891C11.2402 149.891 11.1407 149.915 11.0531 149.963C10.9667 150.011 10.8981 150.077 10.8472 150.162C10.7975 150.248 10.7726 150.346 10.7726 150.457V152H10.0162ZM13.178 152.053C12.8975 152.053 12.656 151.996 12.4536 151.883C12.2524 151.768 12.0973 151.606 11.9884 151.396C11.8795 151.186 11.8251 150.936 11.8251 150.649C11.8251 150.368 11.8795 150.122 11.9884 149.91C12.0973 149.698 12.2506 149.533 12.4483 149.415C12.6472 149.296 12.8803 149.237 13.1479 149.237C13.3278 149.237 13.4953 149.266 13.6503 149.324C13.8066 149.381 13.9427 149.467 14.0587 149.582C14.1759 149.696 14.2671 149.841 14.3322 150.015C14.3973 150.188 14.4298 150.39 14.4298 150.622V150.83H12.1269V150.361H13.7178C13.7178 150.252 13.6941 150.156 13.6468 150.072C13.5994 149.988 13.5338 149.922 13.4497 149.875C13.3668 149.826 13.2704 149.802 13.1603 149.802C13.0455 149.802 12.9437 149.828 12.8549 149.882C12.7673 149.934 12.6986 150.004 12.6489 150.093C12.5992 150.181 12.5738 150.278 12.5726 150.386V150.832C12.5726 150.967 12.5974 151.083 12.6472 151.181C12.698 151.28 12.7697 151.355 12.862 151.409C12.9543 151.462 13.0638 151.489 13.1905 151.489C13.2745 151.489 13.3515 151.477 13.4213 151.453C13.4911 151.429 13.5509 151.394 13.6006 151.347C13.6503 151.299 13.6882 151.241 13.7143 151.173L14.4138 151.219C14.3783 151.387 14.3055 151.534 14.1954 151.659C14.0865 151.783 13.9457 151.88 13.7729 151.95C13.6012 152.019 13.403 152.053 13.178 152.053ZM15.7011 152.051C15.5271 152.051 15.3721 152.021 15.2359 151.961C15.0998 151.899 14.9921 151.809 14.9128 151.689C14.8347 151.569 14.7956 151.418 14.7956 151.238C14.7956 151.087 14.8234 150.96 14.879 150.857C14.9347 150.754 15.0104 150.671 15.1063 150.608C15.2022 150.545 15.3111 150.498 15.433 150.466C15.5561 150.434 15.6851 150.411 15.8201 150.398C15.9787 150.382 16.1065 150.366 16.2036 150.352C16.3007 150.337 16.3711 150.314 16.4149 150.285C16.4587 150.255 16.4806 150.211 16.4806 150.153V150.143C16.4806 150.03 16.4451 149.943 16.3741 149.882C16.3042 149.82 16.2048 149.789 16.0758 149.789C15.9396 149.789 15.8313 149.82 15.7508 149.88C15.6704 149.939 15.6171 150.014 15.591 150.104L14.8915 150.047C14.927 149.881 14.9968 149.738 15.101 149.617C15.2052 149.495 15.3395 149.402 15.504 149.337C15.6698 149.27 15.8615 149.237 16.0793 149.237C16.2308 149.237 16.3758 149.255 16.5143 149.29C16.654 149.326 16.7777 149.381 16.8854 149.456C16.9943 149.53 17.0802 149.626 17.1429 149.743C17.2056 149.859 17.237 149.998 17.237 150.161V152H16.5197V151.622H16.4984C16.4546 151.707 16.396 151.782 16.3226 151.847C16.2492 151.911 16.161 151.962 16.058 151.998C15.955 152.034 15.8361 152.051 15.7011 152.051ZM15.9177 151.529C16.029 151.529 16.1273 151.508 16.2125 151.464C16.2977 151.419 16.3646 151.358 16.4131 151.283C16.4617 151.207 16.4859 151.121 16.4859 151.025V150.736C16.4623 150.751 16.4297 150.765 16.3883 150.778C16.348 150.79 16.3025 150.801 16.2516 150.812C16.2007 150.822 16.1498 150.83 16.0989 150.839C16.048 150.846 16.0018 150.852 15.9604 150.858C15.8716 150.871 15.794 150.892 15.7278 150.92C15.6615 150.949 15.61 150.987 15.5733 151.036C15.5366 151.083 15.5182 151.142 15.5182 151.213C15.5182 151.316 15.5555 151.395 15.6301 151.45C15.7059 151.503 15.8017 151.529 15.9177 151.529ZM19.2745 149.273V149.841H17.6321V149.273H19.2745ZM18.0049 148.619H18.7613V151.162C18.7613 151.232 18.772 151.286 18.7933 151.325C18.8146 151.363 18.8442 151.39 18.8821 151.405C18.9211 151.421 18.9661 151.428 19.017 151.428C19.0525 151.428 19.088 151.425 19.1235 151.419C19.159 151.412 19.1863 151.407 19.2052 151.403L19.3242 151.966C19.2863 151.978 19.233 151.992 19.1644 152.007C19.0957 152.024 19.0123 152.034 18.914 152.037C18.7317 152.044 18.5719 152.02 18.4346 151.964C18.2985 151.909 18.1925 151.822 18.1168 151.705C18.041 151.588 18.0037 151.44 18.0049 151.261V148.619ZM20.9808 152.053C20.7002 152.053 20.4588 151.996 20.2563 151.883C20.0551 151.768 19.9001 151.606 19.7911 151.396C19.6822 151.186 19.6278 150.936 19.6278 150.649C19.6278 150.368 19.6822 150.122 19.7911 149.91C19.9001 149.698 20.0533 149.533 20.251 149.415C20.4499 149.296 20.6831 149.237 20.9506 149.237C21.1305 149.237 21.298 149.266 21.4531 149.324C21.6093 149.381 21.7455 149.467 21.8615 149.582C21.9786 149.696 22.0698 149.841 22.1349 150.015C22.2 150.188 22.2326 150.39 22.2326 150.622V150.83H19.9296V150.361H21.5206C21.5206 150.252 21.4969 150.156 21.4495 150.072C21.4022 149.988 21.3365 149.922 21.2524 149.875C21.1696 149.826 21.0731 149.802 20.963 149.802C20.8482 149.802 20.7464 149.828 20.6576 149.882C20.57 149.934 20.5014 150.004 20.4517 150.093C20.4019 150.181 20.3765 150.278 20.3753 150.386V150.832C20.3753 150.967 20.4002 151.083 20.4499 151.181C20.5008 151.28 20.5724 151.355 20.6647 151.409C20.7571 151.462 20.8666 151.489 20.9932 151.489C21.0773 151.489 21.1542 151.477 21.224 151.453C21.2939 151.429 21.3536 151.394 21.4034 151.347C21.4531 151.299 21.491 151.241 21.517 151.173L22.2166 151.219C22.1811 151.387 22.1083 151.534 21.9982 151.659C21.8893 151.783 21.7484 151.88 21.5756 151.95C21.404 152.019 21.2057 152.053 20.9808 152.053ZM23.7311 152.044C23.524 152.044 23.3364 151.991 23.1683 151.885C23.0014 151.777 22.8688 151.619 22.7706 151.411C22.6735 151.201 22.625 150.944 22.625 150.64C22.625 150.327 22.6753 150.068 22.7759 149.86C22.8765 149.652 23.0103 149.496 23.1772 149.393C23.3452 149.289 23.5293 149.237 23.7294 149.237C23.8821 149.237 24.0093 149.263 24.1111 149.315C24.2141 149.366 24.2969 149.43 24.3597 149.507C24.4236 149.583 24.4721 149.657 24.5053 149.731H24.5284V148.364H25.283V152H24.5372V151.563H24.5053C24.4698 151.639 24.4195 151.714 24.3544 151.789C24.2904 151.862 24.207 151.923 24.104 151.972C24.0022 152.02 23.8779 152.044 23.7311 152.044ZM23.9708 151.442C24.0928 151.442 24.1957 151.409 24.2798 151.343C24.365 151.276 24.4301 151.181 24.4751 151.061C24.5213 150.94 24.5443 150.799 24.5443 150.636C24.5443 150.474 24.5219 150.333 24.4769 150.214C24.4319 150.094 24.3668 150.002 24.2816 149.937C24.1963 149.872 24.0928 149.839 23.9708 149.839C23.8465 149.839 23.7418 149.873 23.6566 149.94C23.5713 150.008 23.5068 150.101 23.463 150.221C23.4192 150.34 23.3973 150.479 23.3973 150.636C23.3973 150.795 23.4192 150.935 23.463 151.057C23.508 151.178 23.5725 151.273 23.6566 151.341C23.7418 151.409 23.8465 151.442 23.9708 151.442ZM27.0763 152V148.364H27.8327V149.731H27.8558C27.8889 149.657 27.9369 149.583 27.9996 149.507C28.0635 149.43 28.1464 149.366 28.2482 149.315C28.3512 149.263 28.479 149.237 28.6317 149.237C28.8306 149.237 29.014 149.289 29.1821 149.393C29.3502 149.496 29.4846 149.652 29.5852 149.86C29.6858 150.068 29.7361 150.327 29.7361 150.64C29.7361 150.944 29.687 151.201 29.5887 151.411C29.4917 151.619 29.3591 151.777 29.191 151.885C29.0241 151.991 28.8371 152.044 28.6299 152.044C28.4831 152.044 28.3583 152.02 28.2553 151.972C28.1535 151.923 28.07 151.862 28.0049 151.789C27.9398 151.714 27.8901 151.639 27.8558 151.563H27.822V152H27.0763ZM27.8167 150.636C27.8167 150.799 27.8392 150.94 27.8842 151.061C27.9292 151.181 27.9943 151.276 28.0795 151.343C28.1647 151.409 28.2683 151.442 28.3902 151.442C28.5133 151.442 28.6175 151.409 28.7027 151.341C28.788 151.273 28.8525 151.178 28.8963 151.057C28.9412 150.935 28.9637 150.795 28.9637 150.636C28.9637 150.479 28.9418 150.34 28.898 150.221C28.8542 150.101 28.7897 150.008 28.7045 149.94C28.6193 149.873 28.5145 149.839 28.3902 149.839C28.2671 149.839 28.163 149.872 28.0777 149.937C27.9937 150.002 27.9292 150.094 27.8842 150.214C27.8392 150.333 27.8167 150.474 27.8167 150.636ZM30.6199 153.023C30.524 153.023 30.4341 153.015 30.35 153C30.2671 152.985 30.1985 152.967 30.144 152.945L30.3145 152.38C30.4033 152.407 30.4832 152.422 30.5542 152.424C30.6264 152.427 30.6886 152.41 30.7406 152.375C30.7939 152.339 30.8371 152.279 30.8703 152.194L30.9146 152.078L29.9363 149.273H30.7318L31.2964 151.276H31.3248L31.8948 149.273H32.6955L31.6355 152.295C31.5846 152.442 31.5154 152.569 31.4278 152.678C31.3414 152.788 31.2319 152.873 31.0993 152.932C30.9667 152.993 30.8069 153.023 30.6199 153.023ZM36.2267 149.409C36.2125 149.266 36.1515 149.155 36.0438 149.076C35.9361 148.996 35.7899 148.957 35.6052 148.957C35.4798 148.957 35.3738 148.974 35.2874 149.01C35.201 149.044 35.1347 149.092 35.0886 149.154C35.0436 149.215 35.0211 149.285 35.0211 149.363C35.0187 149.428 35.0323 149.485 35.0619 149.534C35.0927 149.582 35.1347 149.624 35.188 149.66C35.2413 149.694 35.3028 149.724 35.3726 149.75C35.4425 149.775 35.5171 149.797 35.5964 149.814L35.9231 149.892C36.0817 149.928 36.2273 149.975 36.3599 150.034C36.4924 150.094 36.6073 150.166 36.7043 150.253C36.8014 150.339 36.8766 150.441 36.9298 150.558C36.9843 150.675 37.0121 150.81 37.0133 150.961C37.0121 151.184 36.9553 151.377 36.8428 151.54C36.7315 151.702 36.5706 151.828 36.3599 151.918C36.1503 152.007 35.8976 152.051 35.6017 152.051C35.3081 152.051 35.0525 152.007 34.8347 151.917C34.618 151.827 34.4488 151.693 34.3268 151.517C34.2061 151.339 34.1428 151.12 34.1369 150.858H34.8808C34.8891 150.98 34.924 151.082 34.9856 151.164C35.0483 151.244 35.1318 151.305 35.2359 151.347C35.3413 151.387 35.4602 151.407 35.5928 151.407C35.723 151.407 35.8361 151.388 35.932 151.35C36.029 151.312 36.1042 151.26 36.1574 151.192C36.2107 151.125 36.2373 151.047 36.2373 150.96C36.2373 150.878 36.2131 150.809 36.1646 150.754C36.1172 150.698 36.0474 150.651 35.955 150.612C35.8639 150.572 35.752 150.537 35.6195 150.505L35.2235 150.406C34.9169 150.331 34.6748 150.214 34.4973 150.056C34.3197 149.897 34.2315 149.683 34.2327 149.415C34.2315 149.195 34.2901 149.002 34.4085 148.838C34.5281 148.673 34.692 148.545 34.9003 148.452C35.1087 148.36 35.3454 148.314 35.6106 148.314C35.8805 148.314 36.116 148.36 36.3172 148.452C36.5197 148.545 36.6771 148.673 36.7896 148.838C36.902 149.002 36.96 149.193 36.9636 149.409H36.2267ZM38.2939 152.051C38.1199 152.051 37.9648 152.021 37.8287 151.961C37.6926 151.899 37.5849 151.809 37.5055 151.689C37.4274 151.569 37.3884 151.418 37.3884 151.238C37.3884 151.087 37.4162 150.96 37.4718 150.857C37.5274 150.754 37.6032 150.671 37.6991 150.608C37.795 150.545 37.9039 150.498 38.0258 150.466C38.1489 150.434 38.2779 150.411 38.4129 150.398C38.5715 150.382 38.6993 150.366 38.7964 150.352C38.8935 150.337 38.9639 150.314 39.0077 150.285C39.0515 150.255 39.0734 150.211 39.0734 150.153V150.143C39.0734 150.03 39.0379 149.943 38.9668 149.882C38.897 149.82 38.7976 149.789 38.6685 149.789C38.5324 149.789 38.4241 149.82 38.3436 149.88C38.2631 149.939 38.2099 150.014 38.1838 150.104L37.4842 150.047C37.5198 149.881 37.5896 149.738 37.6938 149.617C37.7979 149.495 37.9323 149.402 38.0968 149.337C38.2625 149.27 38.4543 149.237 38.6721 149.237C38.8236 149.237 38.9686 149.255 39.1071 149.29C39.2468 149.326 39.3705 149.381 39.4782 149.456C39.5871 149.53 39.6729 149.626 39.7357 149.743C39.7984 149.859 39.8298 149.998 39.8298 150.161V152H39.1124V151.622H39.0911C39.0473 151.707 38.9887 151.782 38.9153 151.847C38.842 151.911 38.7538 151.962 38.6508 151.998C38.5478 152.034 38.4288 152.051 38.2939 152.051ZM38.5105 151.529C38.6218 151.529 38.72 151.508 38.8053 151.464C38.8905 151.419 38.9574 151.358 39.0059 151.283C39.0544 151.207 39.0787 151.121 39.0787 151.025V150.736C39.055 150.751 39.0225 150.765 38.981 150.778C38.9408 150.79 38.8952 150.801 38.8443 150.812C38.7934 150.822 38.7425 150.83 38.6916 150.839C38.6407 150.846 38.5946 150.852 38.5531 150.858C38.4644 150.871 38.3868 150.892 38.3205 150.92C38.2542 150.949 38.2028 150.987 38.1661 151.036C38.1294 151.083 38.111 151.142 38.111 151.213C38.111 151.316 38.1483 151.395 38.2229 151.45C38.2986 151.503 38.3945 151.529 38.5105 151.529ZM40.4166 152V149.273H41.1499V149.749H41.1783C41.228 149.579 41.3115 149.451 41.4287 149.365C41.5459 149.277 41.6808 149.234 41.8335 149.234C41.8714 149.234 41.9122 149.236 41.956 149.241C41.9998 149.246 42.0383 149.252 42.0714 149.26V149.931C42.0359 149.921 41.9868 149.911 41.9241 149.903C41.8613 149.895 41.8039 149.891 41.7518 149.891C41.6406 149.891 41.5411 149.915 41.4535 149.963C41.3671 150.011 41.2985 150.077 41.2476 150.162C41.1978 150.248 41.173 150.346 41.173 150.457V152H40.4166ZM42.4625 152V149.273H43.2189V152H42.4625ZM42.8425 148.921C42.73 148.921 42.6335 148.884 42.553 148.809C42.4737 148.734 42.4341 148.643 42.4341 148.538C42.4341 148.433 42.4737 148.344 42.553 148.27C42.6335 148.194 42.73 148.156 42.8425 148.156C42.9549 148.156 43.0508 148.194 43.1301 148.27C43.2106 148.344 43.2508 148.433 43.2508 148.538C43.2508 148.643 43.2106 148.734 43.1301 148.809C43.0508 148.884 42.9549 148.921 42.8425 148.921ZM44.9962 152V148.364H46.4522C46.7197 148.364 46.9428 148.403 47.1216 148.483C47.3003 148.562 47.4347 148.672 47.5246 148.813C47.6146 148.953 47.6596 149.114 47.6596 149.296C47.6596 149.438 47.6312 149.563 47.5744 149.67C47.5175 149.777 47.4394 149.865 47.34 149.933C47.2417 150.001 47.1293 150.049 47.0026 150.077V150.113C47.1411 150.118 47.2707 150.158 47.3915 150.23C47.5134 150.302 47.6122 150.403 47.688 150.533C47.7637 150.662 47.8016 150.816 47.8016 150.995C47.8016 151.188 47.7537 151.36 47.6578 151.512C47.5631 151.662 47.4228 151.781 47.237 151.869C47.0512 151.956 46.8221 152 46.5498 152H44.9962ZM45.765 151.371H46.3918C46.6061 151.371 46.7623 151.331 46.8606 151.249C46.9588 151.166 47.0079 151.056 47.0079 150.919C47.0079 150.818 46.9837 150.729 46.9351 150.652C46.8866 150.575 46.8174 150.515 46.7274 150.471C46.6386 150.427 46.5327 150.406 46.4096 150.406H45.765V151.371ZM45.765 149.885H46.335C46.4404 149.885 46.5339 149.867 46.6155 149.83C46.6984 149.792 46.7635 149.739 46.8109 149.67C46.8594 149.602 46.8837 149.52 46.8837 149.424C46.8837 149.292 46.8369 149.186 46.7434 149.106C46.6511 149.025 46.5197 148.985 46.3492 148.985H45.765V149.885ZM48.2877 152V149.273H49.021V149.749H49.0494C49.0991 149.579 49.1826 149.451 49.2998 149.365C49.4169 149.277 49.5519 149.234 49.7046 149.234C49.7425 149.234 49.7833 149.236 49.8271 149.241C49.8709 149.246 49.9094 149.252 49.9425 149.26V149.931C49.907 149.921 49.8579 149.911 49.7951 149.903C49.7324 149.895 49.675 149.891 49.6229 149.891C49.5116 149.891 49.4122 149.915 49.3246 149.963C49.2382 150.011 49.1696 150.077 49.1187 150.162C49.0689 150.248 49.0441 150.346 49.0441 150.457V152H48.2877ZM51.0332 152.051C50.8592 152.051 50.7041 152.021 50.568 151.961C50.4318 151.899 50.3241 151.809 50.2448 151.689C50.1667 151.569 50.1276 151.418 50.1276 151.238C50.1276 151.087 50.1554 150.96 50.2111 150.857C50.2667 150.754 50.3425 150.671 50.4383 150.608C50.5342 150.545 50.6431 150.498 50.765 150.466C50.8882 150.434 51.0172 150.411 51.1521 150.398C51.3107 150.382 51.4386 150.366 51.5356 150.352C51.6327 150.337 51.7031 150.314 51.7469 150.285C51.7907 150.255 51.8126 150.211 51.8126 150.153V150.143C51.8126 150.03 51.7771 149.943 51.7061 149.882C51.6363 149.82 51.5368 149.789 51.4078 149.789C51.2717 149.789 51.1634 149.82 51.0829 149.88C51.0024 149.939 50.9491 150.014 50.9231 150.104L50.2235 150.047C50.259 149.881 50.3289 149.738 50.433 149.617C50.5372 149.495 50.6715 149.402 50.8361 149.337C51.0018 149.27 51.1936 149.237 51.4114 149.237C51.5629 149.237 51.7079 149.255 51.8464 149.29C51.986 149.326 52.1097 149.381 52.2175 149.456C52.3264 149.53 52.4122 149.626 52.4749 149.743C52.5377 149.859 52.569 149.998 52.569 150.161V152H51.8517V151.622H51.8304C51.7866 151.707 51.728 151.782 51.6546 151.847C51.5812 151.911 51.493 151.962 51.39 151.998C51.2871 152.034 51.1681 152.051 51.0332 152.051ZM51.2498 151.529C51.361 151.529 51.4593 151.508 51.5445 151.464C51.6297 151.419 51.6966 151.358 51.7452 151.283C51.7937 151.207 51.818 151.121 51.818 151.025V150.736C51.7943 150.751 51.7617 150.765 51.7203 150.778C51.6801 150.79 51.6345 150.801 51.5836 150.812C51.5327 150.822 51.4818 150.83 51.4309 150.839C51.38 150.846 51.3338 150.852 51.2924 150.858C51.2036 150.871 51.1261 150.892 51.0598 150.92C50.9935 150.949 50.942 150.987 50.9053 151.036C50.8686 151.083 50.8503 151.142 50.8503 151.213C50.8503 151.316 50.8876 151.395 50.9621 151.45C51.0379 151.503 51.1338 151.529 51.2498 151.529ZM54.3845 153.08C54.1395 153.08 53.9294 153.046 53.7542 152.978C53.5802 152.912 53.4417 152.821 53.3387 152.707C53.2358 152.592 53.1689 152.463 53.1381 152.32L53.8377 152.225C53.859 152.28 53.8927 152.331 53.9389 152.378C53.985 152.426 54.046 152.463 54.1218 152.492C54.1987 152.521 54.2922 152.536 54.4023 152.536C54.5668 152.536 54.7024 152.496 54.8089 152.415C54.9166 152.336 54.9705 152.203 54.9705 152.016V151.517H54.9385C54.9054 151.593 54.8557 151.664 54.7894 151.732C54.7231 151.799 54.6379 151.854 54.5337 151.897C54.4295 151.94 54.3052 151.961 54.1608 151.961C53.956 151.961 53.7696 151.914 53.6015 151.819C53.4346 151.723 53.3014 151.577 53.202 151.38C53.1038 151.183 53.0546 150.933 53.0546 150.631C53.0546 150.322 53.105 150.064 53.2056 149.857C53.3062 149.65 53.4399 149.495 53.6068 149.392C53.7749 149.289 53.959 149.237 54.159 149.237C54.3117 149.237 54.4396 149.263 54.5426 149.315C54.6456 149.366 54.7284 149.43 54.7911 149.507C54.8551 149.583 54.9042 149.657 54.9385 149.731H54.9669V149.273H55.718V152.027C55.718 152.259 55.6612 152.453 55.5475 152.609C55.4339 152.765 55.2765 152.882 55.0752 152.961C54.8752 153.04 54.645 153.08 54.3845 153.08ZM54.4005 151.393C54.5224 151.393 54.6254 151.363 54.7095 151.302C54.7947 151.241 54.8598 151.153 54.9048 151.039C54.9509 150.925 54.974 150.787 54.974 150.627C54.974 150.468 54.9515 150.329 54.9066 150.212C54.8616 150.094 54.7965 150.002 54.7112 149.937C54.626 149.872 54.5224 149.839 54.4005 149.839C54.2762 149.839 54.1715 149.873 54.0862 149.94C54.001 150.007 53.9365 150.099 53.8927 150.217C53.8489 150.336 53.827 150.472 53.827 150.627C53.827 150.785 53.8489 150.921 53.8927 151.036C53.9377 151.15 54.0022 151.238 54.0862 151.3C54.1715 151.362 54.2762 151.393 54.4005 151.393ZM57.0976 152.051C56.9236 152.051 56.7685 152.021 56.6324 151.961C56.4963 151.899 56.3886 151.809 56.3093 151.689C56.2311 151.569 56.1921 151.418 56.1921 151.238C56.1921 151.087 56.2199 150.96 56.2755 150.857C56.3312 150.754 56.4069 150.671 56.5028 150.608C56.5987 150.545 56.7076 150.498 56.8295 150.466C56.9526 150.434 57.0816 150.411 57.2166 150.398C57.3752 150.382 57.503 150.366 57.6001 150.352C57.6972 150.337 57.7676 150.314 57.8114 150.285C57.8552 150.255 57.8771 150.211 57.8771 150.153V150.143C57.8771 150.03 57.8416 149.943 57.7706 149.882C57.7007 149.82 57.6013 149.789 57.4723 149.789C57.3361 149.789 57.2278 149.82 57.1473 149.88C57.0668 149.939 57.0136 150.014 56.9875 150.104L56.288 150.047C56.3235 149.881 56.3933 149.738 56.4975 149.617C56.6016 149.495 56.736 149.402 56.9005 149.337C57.0662 149.27 57.258 149.237 57.4758 149.237C57.6273 149.237 57.7723 149.255 57.9108 149.29C58.0505 149.326 58.1742 149.381 58.2819 149.456C58.3908 149.53 58.4766 149.626 58.5394 149.743C58.6021 149.859 58.6335 149.998 58.6335 150.161V152H57.9161V151.622H57.8948C57.851 151.707 57.7925 151.782 57.7191 151.847C57.6457 151.911 57.5575 151.962 57.4545 151.998C57.3515 152.034 57.2326 152.051 57.0976 152.051ZM57.3142 151.529C57.4255 151.529 57.5237 151.508 57.609 151.464C57.6942 151.419 57.7611 151.358 57.8096 151.283C57.8581 151.207 57.8824 151.121 57.8824 151.025V150.736C57.8587 150.751 57.8262 150.765 57.7848 150.778C57.7445 150.79 57.6989 150.801 57.648 150.812C57.5971 150.822 57.5462 150.83 57.4953 150.839C57.4444 150.846 57.3983 150.852 57.3568 150.858C57.2681 150.871 57.1905 150.892 57.1242 150.92C57.058 150.949 57.0065 150.987 56.9698 151.036C56.9331 151.083 56.9147 151.142 56.9147 151.213C56.9147 151.316 56.952 151.395 57.0266 151.45C57.1023 151.503 57.1982 151.529 57.3142 151.529Z" fill="black"/>
<path d="M7.72306 155.273V155.841H6.03982V155.273H7.72306ZM6.42512 158V155.076C6.42512 154.878 6.46359 154.714 6.54053 154.584C6.61865 154.454 6.72519 154.356 6.86013 154.291C6.99507 154.226 7.14836 154.193 7.32 154.193C7.43601 154.193 7.54195 154.202 7.63783 154.22C7.73489 154.238 7.8071 154.254 7.85445 154.268L7.7195 154.836C7.68991 154.826 7.65322 154.818 7.60942 154.809C7.56681 154.801 7.52301 154.797 7.47803 154.797C7.36676 154.797 7.28923 154.823 7.24543 154.875C7.20163 154.926 7.17973 154.998 7.17973 155.09V158H6.42512ZM8.18515 158V155.273H8.91846V155.749H8.94687C8.99658 155.579 9.08003 155.451 9.19722 155.365C9.31441 155.277 9.44935 155.234 9.60205 155.234C9.63993 155.234 9.68077 155.236 9.72456 155.241C9.76836 155.246 9.80683 155.252 9.83998 155.26V155.931C9.80447 155.921 9.75534 155.911 9.6926 155.903C9.62987 155.895 9.57246 155.891 9.52037 155.891C9.40911 155.891 9.30967 155.915 9.22208 155.963C9.13567 156.011 9.06701 156.077 9.01611 156.162C8.9664 156.248 8.94154 156.346 8.94154 156.457V158H8.18515ZM11.3363 158.053C11.0605 158.053 10.822 157.995 10.6208 157.877C10.4207 157.759 10.2663 157.595 10.1574 157.384C10.0485 157.172 9.99401 156.926 9.99401 156.647C9.99401 156.365 10.0485 156.119 10.1574 155.908C10.2663 155.696 10.4207 155.532 10.6208 155.415C10.822 155.296 11.0605 155.237 11.3363 155.237C11.6121 155.237 11.8501 155.296 12.0501 155.415C12.2513 155.532 12.4064 155.696 12.5153 155.908C12.6242 156.119 12.6787 156.365 12.6787 156.647C12.6787 156.926 12.6242 157.172 12.5153 157.384C12.4064 157.595 12.2513 157.759 12.0501 157.877C11.8501 157.995 11.6121 158.053 11.3363 158.053ZM11.3399 157.467C11.4654 157.467 11.5701 157.432 11.6542 157.361C11.7382 157.289 11.8015 157.19 11.8441 157.066C11.8879 156.942 11.9098 156.8 11.9098 156.642C11.9098 156.483 11.8879 156.342 11.8441 156.217C11.8015 156.093 11.7382 155.995 11.6542 155.923C11.5701 155.85 11.4654 155.814 11.3399 155.814C11.2132 155.814 11.1067 155.85 11.0203 155.923C10.9351 155.995 10.8705 156.093 10.8267 156.217C10.7841 156.342 10.7628 156.483 10.7628 156.642C10.7628 156.8 10.7841 156.942 10.8267 157.066C10.8705 157.19 10.9351 157.289 11.0203 157.361C11.1067 157.432 11.2132 157.467 11.3399 157.467ZM13.1705 158V155.273H13.8914V155.754H13.9233C13.9802 155.594 14.0749 155.468 14.2074 155.376C14.34 155.283 14.4986 155.237 14.6833 155.237C14.8703 155.237 15.0295 155.284 15.1609 155.377C15.2923 155.47 15.3799 155.595 15.4237 155.754H15.4521C15.5077 155.598 15.6084 155.473 15.754 155.379C15.9007 155.285 16.0741 155.237 16.2742 155.237C16.5287 155.237 16.7352 155.318 16.8939 155.48C17.0537 155.641 17.1336 155.87 17.1336 156.166V158H16.379V156.315C16.379 156.163 16.3387 156.05 16.2582 155.974C16.1777 155.898 16.0771 155.86 15.9564 155.86C15.8191 155.86 15.7119 155.904 15.635 155.992C15.558 156.078 15.5196 156.192 15.5196 156.335V158H14.7863V156.299C14.7863 156.165 14.7478 156.059 14.6709 155.979C14.5951 155.9 14.4951 155.86 14.3708 155.86C14.2867 155.86 14.211 155.882 14.1435 155.924C14.0772 155.966 14.0245 156.024 13.9855 156.1C13.9464 156.175 13.9269 156.262 13.9269 156.363V158H13.1705ZM21.944 154.364V158H21.28L19.6979 155.711H19.6713V158H18.9025V154.364H19.5772L21.1468 156.651H21.1788V154.364H21.944ZM23.7973 158.053C23.5215 158.053 23.283 157.995 23.0817 157.877C22.8817 157.759 22.7272 157.595 22.6183 157.384C22.5094 157.172 22.4549 156.926 22.4549 156.647C22.4549 156.365 22.5094 156.119 22.6183 155.908C22.7272 155.696 22.8817 155.532 23.0817 155.415C23.283 155.296 23.5215 155.237 23.7973 155.237C24.0731 155.237 24.311 155.296 24.5111 155.415C24.7123 155.532 24.8674 155.696 24.9763 155.908C25.0852 156.119 25.1396 156.365 25.1396 156.647C25.1396 156.926 25.0852 157.172 24.9763 157.384C24.8674 157.595 24.7123 157.759 24.5111 157.877C24.311 157.995 24.0731 158.053 23.7973 158.053ZM23.8008 157.467C23.9263 157.467 24.0311 157.432 24.1151 157.361C24.1991 157.289 24.2625 157.19 24.3051 157.066C24.3489 156.942 24.3708 156.8 24.3708 156.642C24.3708 156.483 24.3489 156.342 24.3051 156.217C24.2625 156.093 24.1991 155.995 24.1151 155.923C24.0311 155.85 23.9263 155.814 23.8008 155.814C23.6742 155.814 23.5676 155.85 23.4812 155.923C23.396 155.995 23.3315 156.093 23.2877 156.217C23.2451 156.342 23.2238 156.483 23.2238 156.642C23.2238 156.8 23.2451 156.942 23.2877 157.066C23.3315 157.19 23.396 157.289 23.4812 157.361C23.5676 157.432 23.6742 157.467 23.8008 157.467ZM27.3804 156.839V155.273H28.1368V158H27.4106V157.505H27.3821C27.3206 157.664 27.2182 157.793 27.075 157.89C26.9329 157.987 26.7595 158.036 26.5547 158.036C26.3724 158.036 26.212 157.994 26.0736 157.911C25.9351 157.828 25.8267 157.711 25.7486 157.558C25.6717 157.405 25.6326 157.222 25.6314 157.009V155.273H26.3878V156.874C26.389 157.035 26.4322 157.163 26.5174 157.256C26.6027 157.35 26.7169 157.396 26.8601 157.396C26.9513 157.396 27.0365 157.376 27.1158 157.334C27.1951 157.292 27.259 157.229 27.3076 157.146C27.3573 157.063 27.3816 156.961 27.3804 156.839ZM29.4982 156.423V158H28.7418V155.273H29.4627V155.754H29.4946C29.555 155.595 29.6562 155.47 29.7983 155.377C29.9403 155.284 30.1125 155.237 30.3149 155.237C30.5043 155.237 30.6695 155.279 30.8103 155.362C30.9512 155.444 31.0607 155.563 31.1388 155.717C31.2169 155.869 31.256 156.052 31.256 156.263V158H30.4996V156.398C30.5008 156.232 30.4582 156.101 30.3718 156.008C30.2853 155.913 30.1664 155.866 30.0149 155.866C29.9131 155.866 29.8231 155.888 29.745 155.931C29.668 155.975 29.6077 156.039 29.5639 156.123C29.5213 156.206 29.4994 156.306 29.4982 156.423ZM33.0236 158V154.364H34.4582C34.734 154.364 34.969 154.416 35.1631 154.522C35.3573 154.626 35.5052 154.771 35.607 154.957C35.71 155.141 35.7615 155.354 35.7615 155.596C35.7615 155.837 35.7094 156.05 35.6052 156.235C35.5011 156.42 35.3502 156.564 35.1525 156.667C34.956 156.77 34.7181 156.821 34.4387 156.821H33.5243V156.205H34.3144C34.4624 156.205 34.5843 156.179 34.6802 156.129C34.7772 156.076 34.8494 156.005 34.8968 155.914C34.9453 155.821 34.9696 155.715 34.9696 155.596C34.9696 155.475 34.9453 155.37 34.8968 155.28C34.8494 155.189 34.7772 155.118 34.6802 155.069C34.5831 155.018 34.46 154.992 34.3109 154.992H33.7924V158H33.0236ZM36.2467 158V155.273H36.98V155.749H37.0084C37.0581 155.579 37.1416 155.451 37.2587 155.365C37.3759 155.277 37.5109 155.234 37.6636 155.234C37.7015 155.234 37.7423 155.236 37.7861 155.241C37.8299 155.246 37.8684 155.252 37.9015 155.26V155.931C37.866 155.921 37.8169 155.911 37.7541 155.903C37.6914 155.895 37.634 155.891 37.5819 155.891C37.4706 155.891 37.3712 155.915 37.2836 155.963C37.1972 156.011 37.1285 156.077 37.0776 156.162C37.0279 156.248 37.0031 156.346 37.0031 156.457V158H36.2467ZM39.3979 158.053C39.1221 158.053 38.8835 157.995 38.6823 157.877C38.4823 157.759 38.3278 157.595 38.2189 157.384C38.11 157.172 38.0555 156.926 38.0555 156.647C38.0555 156.365 38.11 156.119 38.2189 155.908C38.3278 155.696 38.4823 155.532 38.6823 155.415C38.8835 155.296 39.1221 155.237 39.3979 155.237C39.6737 155.237 39.9116 155.296 40.1116 155.415C40.3129 155.532 40.4679 155.696 40.5768 155.908C40.6857 156.119 40.7402 156.365 40.7402 156.647C40.7402 156.926 40.6857 157.172 40.5768 157.384C40.4679 157.595 40.3129 157.759 40.1116 157.877C39.9116 157.995 39.6737 158.053 39.3979 158.053ZM39.4014 157.467C39.5269 157.467 39.6316 157.432 39.7157 157.361C39.7997 157.289 39.8631 157.19 39.9057 157.066C39.9495 156.942 39.9714 156.8 39.9714 156.642C39.9714 156.483 39.9495 156.342 39.9057 156.217C39.8631 156.093 39.7997 155.995 39.7157 155.923C39.6316 155.85 39.5269 155.814 39.4014 155.814C39.2748 155.814 39.1682 155.85 39.0818 155.923C38.9966 155.995 38.9321 156.093 38.8883 156.217C38.8457 156.342 38.8244 156.483 38.8244 156.642C38.8244 156.8 38.8457 156.942 38.8883 157.066C38.9321 157.19 38.9966 157.289 39.0818 157.361C39.1682 157.432 39.2748 157.467 39.4014 157.467ZM41.232 155.273H41.9884V158.135C41.9884 158.346 41.947 158.516 41.8641 158.646C41.7813 158.777 41.6623 158.872 41.5072 158.932C41.3534 158.993 41.1693 159.023 40.955 159.023C40.929 159.023 40.9041 159.022 40.8805 159.021C40.8556 159.021 40.8296 159.02 40.8023 159.019V158.428C40.8225 158.429 40.8402 158.43 40.8556 158.43C40.8698 158.431 40.8852 158.431 40.9018 158.431C41.0237 158.431 41.1089 158.405 41.1574 158.353C41.2072 158.302 41.232 158.225 41.232 158.123V155.273ZM41.6084 154.921C41.4972 154.921 41.4013 154.884 41.3208 154.809C41.2403 154.734 41.2001 154.643 41.2001 154.538C41.2001 154.433 41.2403 154.344 41.3208 154.27C41.4013 154.194 41.4972 154.156 41.6084 154.156C41.7221 154.156 41.8186 154.194 41.8979 154.27C41.9784 154.344 42.0186 154.433 42.0186 154.538C42.0186 154.643 41.9784 154.734 41.8979 154.809C41.8186 154.884 41.7221 154.921 41.6084 154.921ZM43.8372 158.053C43.5567 158.053 43.3152 157.996 43.1128 157.883C42.9116 157.768 42.7565 157.606 42.6476 157.396C42.5387 157.186 42.4842 156.936 42.4842 156.649C42.4842 156.368 42.5387 156.122 42.6476 155.91C42.7565 155.698 42.9098 155.533 43.1075 155.415C43.3063 155.296 43.5395 155.237 43.807 155.237C43.987 155.237 44.1545 155.266 44.3095 155.324C44.4658 155.381 44.6019 155.467 44.7179 155.582C44.8351 155.696 44.9262 155.841 44.9913 156.015C45.0564 156.188 45.089 156.39 45.089 156.622V156.83H42.7861V156.361H44.377C44.377 156.252 44.3533 156.156 44.306 156.072C44.2586 155.988 44.1929 155.922 44.1089 155.875C44.026 155.826 43.9296 155.802 43.8195 155.802C43.7046 155.802 43.6028 155.828 43.5141 155.882C43.4265 155.934 43.3578 156.004 43.3081 156.093C43.2584 156.181 43.2329 156.278 43.2318 156.386V156.832C43.2318 156.967 43.2566 157.083 43.3063 157.181C43.3572 157.28 43.4288 157.355 43.5212 157.409C43.6135 157.462 43.723 157.489 43.8497 157.489C43.9337 157.489 44.0106 157.477 44.0805 157.453C44.1503 157.429 44.2101 157.394 44.2598 157.347C44.3095 157.299 44.3474 157.241 44.3734 157.173L45.073 157.219C45.0375 157.387 44.9647 157.534 44.8546 157.659C44.7457 157.783 44.6049 157.88 44.432 157.95C44.2604 158.019 44.0621 158.053 43.8372 158.053ZM46.8149 158.053C46.5355 158.053 46.2952 157.994 46.094 157.876C45.8939 157.756 45.74 157.59 45.6323 157.379C45.5258 157.167 45.4725 156.923 45.4725 156.647C45.4725 156.368 45.5264 156.123 45.6341 155.912C45.743 155.7 45.8975 155.535 46.0975 155.417C46.2976 155.297 46.5355 155.237 46.8113 155.237C47.0492 155.237 47.2576 155.28 47.4363 155.367C47.615 155.453 47.7565 155.575 47.8607 155.731C47.9648 155.887 48.0222 156.071 48.0329 156.281H47.3191C47.299 156.145 47.2457 156.036 47.1593 155.953C47.0741 155.869 46.9622 155.827 46.8237 155.827C46.7065 155.827 46.6042 155.859 46.5166 155.923C46.4301 155.985 46.3627 156.077 46.3141 156.198C46.2656 156.319 46.2413 156.465 46.2413 156.636C46.2413 156.81 46.265 156.958 46.3124 157.08C46.3609 157.202 46.429 157.295 46.5166 157.359C46.6042 157.423 46.7065 157.455 46.8237 157.455C46.9101 157.455 46.9877 157.437 47.0563 157.402C47.1262 157.366 47.1836 157.315 47.2286 157.247C47.2747 157.179 47.3049 157.096 47.3191 157H48.0329C48.0211 157.209 47.9642 157.392 47.8624 157.551C47.7618 157.708 47.6227 157.831 47.4452 157.92C47.2676 158.009 47.0575 158.053 46.8149 158.053ZM49.9678 155.273V155.841H48.3254V155.273H49.9678ZM48.6983 154.619H49.4547V157.162C49.4547 157.232 49.4653 157.286 49.4866 157.325C49.5079 157.363 49.5375 157.39 49.5754 157.405C49.6145 157.421 49.6595 157.428 49.7104 157.428C49.7459 157.428 49.7814 157.425 49.8169 157.419C49.8524 157.412 49.8796 157.407 49.8986 157.403L50.0175 157.966C49.9797 157.978 49.9264 157.992 49.8577 158.007C49.7891 158.024 49.7056 158.034 49.6074 158.037C49.4251 158.044 49.2653 158.02 49.128 157.964C48.9918 157.909 48.8859 157.822 48.8101 157.705C48.7344 157.588 48.6971 157.44 48.6983 157.261V154.619Z" fill="black"/>
</svg>
