<svg width="164" height="27" viewBox="0 0 164 27" fill="none" xmlns="http://www.w3.org/2000/svg">
<path d="M3.056 19.648C2.32 19.648 1.752 19.424 1.352 18.976C0.968 18.512 0.776 17.904 0.776 17.152C0.776 16.608 0.872 15.952 1.064 15.184C1.4 13.888 1.968 12.384 2.768 10.672C3.392 9.376 4.064 8.104 4.784 6.856C5.504 5.592 6.296 4.352 7.16 3.136C8.536 1.184 9.496 0.207999 10.04 0.207999C10.392 0.207999 10.568 0.303999 10.568 0.495999C10.568 0.768 10.12 1.448 9.224 2.536L7.544 4.576C6.088 6.336 4.896 8.136 3.968 9.976C3.056 11.816 2.344 13.656 1.832 15.496C1.688 16.024 1.616 16.52 1.616 16.984C1.616 18.2 2.112 18.808 3.104 18.808C3.456 18.808 3.816 18.704 4.184 18.496C4.552 18.304 4.752 18.208 4.784 18.208C4.976 18.208 5.072 18.344 5.072 18.616C5.072 18.856 4.984 19.04 4.808 19.168C4.264 19.488 3.68 19.648 3.056 19.648ZM8.67594 19.432C8.00394 19.432 7.47594 19.2 7.09194 18.736C6.70794 18.272 6.51594 17.704 6.51594 17.032C6.51594 15.88 6.89994 14.696 7.66794 13.48C7.87594 13.144 8.11594 12.816 8.38794 12.496C8.65994 12.16 8.95594 11.84 9.27594 11.536C9.75594 11.072 10.2599 10.688 10.7879 10.384C11.3159 10.08 11.8279 9.928 12.3239 9.928C13.1399 9.928 13.5479 10.312 13.5479 11.08C13.5479 12.04 12.9879 12.912 11.8679 13.696C10.8279 14.4 9.80394 14.752 8.79594 14.752C8.61994 14.752 8.45994 14.744 8.31594 14.728C8.18794 14.696 8.06794 14.664 7.95594 14.632C7.79594 14.936 7.65194 15.328 7.52394 15.808C7.39594 16.288 7.33194 16.704 7.33194 17.056C7.33194 18.112 7.79594 18.64 8.72394 18.64C9.47594 18.64 10.1879 18.512 10.8599 18.256C11.5319 17.984 12.3319 17.48 13.2599 16.744C13.8359 16.296 14.2679 15.936 14.5559 15.664C14.8439 15.392 15.1559 15.104 15.4919 14.8C15.5879 14.736 15.6759 14.704 15.7559 14.704C15.8359 14.704 15.9159 14.728 15.9959 14.776C16.0759 14.824 16.1159 14.896 16.1159 14.992C16.1159 15.168 15.9559 15.416 15.6359 15.736C15.3639 15.992 15.0759 16.264 14.7719 16.552C14.4679 16.824 13.9879 17.208 13.3319 17.704C12.6279 18.248 11.8599 18.672 11.0279 18.976C10.1959 19.28 9.41194 19.432 8.67594 19.432ZM8.65194 13.984C9.16394 13.984 9.65194 13.904 10.1159 13.744C10.5799 13.584 11.0199 13.352 11.4359 13.048C12.3639 12.36 12.8279 11.712 12.8279 11.104C12.8279 10.832 12.6599 10.696 12.3239 10.696C11.6839 10.696 10.9399 11.088 10.0919 11.872C9.67594 12.256 9.33194 12.608 9.05994 12.928C8.80394 13.232 8.56394 13.568 8.33994 13.936C8.43594 13.968 8.53994 13.984 8.65194 13.984ZM15.7454 19.24C14.8174 19.24 14.3534 18.8 14.3534 17.92C14.3534 17.344 14.4894 16.728 14.7614 16.072C15.0494 15.4 15.4334 14.752 15.9134 14.128C16.3934 13.488 16.9294 12.912 17.5214 12.4C18.1134 11.872 18.7214 11.456 19.3454 11.152C19.9694 10.832 20.5694 10.672 21.1454 10.672C22.1694 10.672 22.6814 11.176 22.6814 12.184C22.6814 12.84 22.5214 13.168 22.2014 13.168C21.9134 13.168 21.7694 13.032 21.7694 12.76C21.7694 12.648 21.7934 12.536 21.8414 12.424C21.9054 12.296 21.9374 12.16 21.9374 12.016C21.9374 11.568 21.6334 11.344 21.0254 11.344C20.0494 11.344 18.8254 12.088 17.3534 13.576C17.0014 13.944 16.6574 14.376 16.3214 14.872C15.9854 15.368 15.7054 15.872 15.4814 16.384C15.2734 16.88 15.1694 17.352 15.1694 17.8C15.1694 18.232 15.4094 18.448 15.8894 18.448C16.3054 18.448 16.7454 18.32 17.2094 18.064C17.6894 17.808 18.1054 17.544 18.4574 17.272C19.1614 16.744 19.8814 16.024 20.6174 15.112C20.7294 14.984 20.8734 14.816 21.0494 14.608C21.2254 14.4 21.4254 14.168 21.6494 13.912C21.7294 13.832 21.8254 13.792 21.9374 13.792C22.1934 13.792 22.3214 13.92 22.3214 14.176L21.4094 15.544C20.8014 16.44 20.4974 17.176 20.4974 17.752C20.4974 18.168 20.6974 18.376 21.0974 18.376C21.4334 18.376 21.8014 18.288 22.2014 18.112C22.6014 17.936 22.9294 17.76 23.1854 17.584C23.6974 17.248 24.2334 16.832 24.7934 16.336C25.3534 15.824 25.8894 15.312 26.4014 14.8C26.4654 14.736 26.5614 14.704 26.6894 14.704C26.9294 14.704 27.0494 14.8 27.0494 14.992C27.0494 15.168 26.9374 15.368 26.7134 15.592C26.0734 16.232 25.4974 16.784 24.9854 17.248C24.4734 17.696 23.9854 18.064 23.5214 18.352C23.2174 18.528 22.8414 18.712 22.3934 18.904C21.9454 19.096 21.4334 19.192 20.8574 19.192C20.0734 19.192 19.6814 18.776 19.6814 17.944C19.6814 17.624 19.7214 17.36 19.8014 17.152C18.3454 18.544 16.9934 19.24 15.7454 19.24ZM24.7719 19.6C24.5159 19.6 24.3879 19.496 24.3879 19.288C24.3879 19.192 24.4119 19.096 24.4599 19C24.5239 18.904 24.5719 18.824 24.6039 18.76L26.7879 14.344C27.7159 12.456 28.1799 11.408 28.1799 11.2C28.1799 10.976 28.2919 10.864 28.5159 10.864C28.8199 10.864 28.9719 11.016 28.9719 11.32C28.9719 11.48 28.8999 11.736 28.7559 12.088C28.6119 12.44 28.4279 12.848 28.2039 13.312C27.8199 14.144 27.4999 14.784 27.2439 15.232C27.7239 14.672 28.2119 14.144 28.7079 13.648C29.2039 13.152 29.7079 12.68 30.2199 12.232C31.7399 10.904 32.9079 10.24 33.7239 10.24C34.2839 10.24 34.5639 10.504 34.5639 11.032C34.5639 11.544 34.3959 11.8 34.0599 11.8C33.8999 11.8 33.7799 11.664 33.6999 11.392C33.6519 11.2 33.5399 11.104 33.3639 11.104C33.0919 11.104 32.5639 11.4 31.7799 11.992C30.9159 12.632 30.0439 13.392 29.1639 14.272C28.2999 15.152 27.3799 16.272 26.4039 17.632L25.2039 19.312C25.1399 19.392 25.0759 19.456 25.0119 19.504C24.9639 19.568 24.8839 19.6 24.7719 19.6ZM32.4828 19.6C32.2268 19.6 32.0988 19.496 32.0988 19.288C32.0988 19.208 32.1308 19.112 32.1948 19C32.2588 18.872 32.3148 18.768 32.3628 18.688L34.5228 14.344C35.4508 12.456 35.9148 11.408 35.9148 11.2C35.9148 10.976 36.0268 10.864 36.2508 10.864C36.5548 10.864 36.7068 11.024 36.7068 11.344C36.7068 11.456 36.6348 11.696 36.4908 12.064C36.3468 12.432 36.1628 12.848 35.9388 13.312C35.5548 14.144 35.2348 14.784 34.9788 15.232C35.4588 14.672 35.9468 14.144 36.4428 13.648C36.9388 13.152 37.4428 12.68 37.9548 12.232C39.4748 10.904 40.6428 10.24 41.4588 10.24C42.0188 10.24 42.2988 10.504 42.2988 11.032C42.2988 11.512 41.8908 12.592 41.0748 14.272C40.2588 15.968 39.8508 17.04 39.8508 17.488C39.8508 17.696 39.9228 17.8 40.0668 17.8C40.1148 17.8 40.1868 17.784 40.2828 17.752C40.3948 17.704 40.5068 17.68 40.6188 17.68C40.8908 17.68 41.0268 17.808 41.0268 18.064C41.0268 18.384 40.6828 18.544 39.9948 18.544C39.6748 18.544 39.4428 18.472 39.2988 18.328C39.1548 18.168 39.0828 17.96 39.0828 17.704C39.0828 16.936 39.4748 15.768 40.2588 14.2C41.0428 12.648 41.4348 11.712 41.4348 11.392C41.4348 11.2 41.3628 11.104 41.2188 11.104C40.8668 11.104 40.2988 11.4 39.5148 11.992C38.6668 12.632 37.8188 13.368 36.9708 14.2C36.1228 15.032 35.3148 15.984 34.5468 17.056L32.8668 19.384C32.7708 19.528 32.6428 19.6 32.4828 19.6ZM48.0219 9.544C47.7499 9.544 47.6139 9.408 47.6139 9.136C47.6139 9.056 47.6699 8.912 47.7819 8.704C47.8939 8.48 48.0219 8.256 48.1659 8.032C48.3099 7.808 48.4219 7.656 48.5019 7.576C48.7739 7.272 48.9819 7.08 49.1259 7C49.2859 6.92 49.4299 6.88 49.5579 6.88C49.8939 6.88 50.0619 7.032 50.0619 7.336C50.0619 7.448 49.9899 7.584 49.8459 7.744C49.7179 7.888 49.5659 8.024 49.3899 8.152C49.1339 8.312 48.9739 8.44 48.9099 8.536L48.3819 9.28C48.3659 9.344 48.3259 9.408 48.2619 9.472C48.2139 9.52 48.1339 9.544 48.0219 9.544ZM43.9419 19.264C43.4939 19.264 43.1659 19.176 42.9579 19C42.7659 18.824 42.6699 18.56 42.6699 18.208C42.6699 17.872 42.7739 17.416 42.9819 16.84C43.1899 16.248 43.4539 15.616 43.7739 14.944C44.1099 14.272 44.4619 13.632 44.8299 13.024C45.1979 12.416 45.5499 11.92 45.8859 11.536C46.2379 11.136 46.5179 10.936 46.7259 10.936C47.0139 10.936 47.1579 11.064 47.1579 11.32C47.1579 11.48 47.0219 11.784 46.7499 12.232C46.4779 12.68 46.1819 13.144 45.8619 13.624C45.7339 13.8 45.5579 14.04 45.3339 14.344C45.1099 14.648 44.8939 14.936 44.6859 15.208C44.4779 15.464 44.3419 15.64 44.2779 15.736C44.1179 15.976 43.9499 16.368 43.7739 16.912C43.5819 17.456 43.4859 17.872 43.4859 18.16C43.4859 18.288 43.5099 18.384 43.5579 18.448C43.6219 18.512 43.7579 18.544 43.9659 18.544C44.3659 18.544 44.8139 18.416 45.3099 18.16C45.8059 17.904 46.3099 17.584 46.8219 17.2C47.3339 16.8 47.8139 16.392 48.2619 15.976C48.7259 15.56 49.1179 15.2 49.4379 14.896C49.5019 14.832 49.5979 14.8 49.7259 14.8C49.9659 14.8 50.0859 14.896 50.0859 15.088C50.0859 15.264 49.9739 15.464 49.7499 15.688C49.3179 16.12 48.9179 16.504 48.5499 16.84C48.1819 17.176 47.8299 17.472 47.4939 17.728C46.9659 18.112 46.3819 18.464 45.7419 18.784C45.1019 19.104 44.5019 19.264 43.9419 19.264ZM47.8813 19.6C47.6253 19.6 47.4973 19.496 47.4973 19.288C47.4973 19.208 47.5293 19.112 47.5933 19C47.6573 18.872 47.7133 18.768 47.7613 18.688L49.9213 14.344C50.8493 12.456 51.3133 11.408 51.3133 11.2C51.3133 10.976 51.4253 10.864 51.6493 10.864C51.9533 10.864 52.1053 11.024 52.1053 11.344C52.1053 11.456 52.0333 11.696 51.8893 12.064C51.7453 12.432 51.5613 12.848 51.3373 13.312C50.9533 14.144 50.6333 14.784 50.3773 15.232C50.8573 14.672 51.3453 14.144 51.8413 13.648C52.3373 13.152 52.8413 12.68 53.3533 12.232C54.8733 10.904 56.0413 10.24 56.8573 10.24C57.4173 10.24 57.6973 10.504 57.6973 11.032C57.6973 11.512 57.2893 12.592 56.4733 14.272C55.6573 15.968 55.2493 17.04 55.2493 17.488C55.2493 17.696 55.3213 17.8 55.4653 17.8C55.5133 17.8 55.5853 17.784 55.6813 17.752C55.7933 17.704 55.9053 17.68 56.0173 17.68C56.2893 17.68 56.4253 17.808 56.4253 18.064C56.4253 18.384 56.0813 18.544 55.3933 18.544C55.0733 18.544 54.8413 18.472 54.6973 18.328C54.5533 18.168 54.4813 17.96 54.4813 17.704C54.4813 16.936 54.8733 15.768 55.6573 14.2C56.4413 12.648 56.8333 11.712 56.8333 11.392C56.8333 11.2 56.7613 11.104 56.6173 11.104C56.2653 11.104 55.6973 11.4 54.9133 11.992C54.0653 12.632 53.2173 13.368 52.3693 14.2C51.5213 15.032 50.7133 15.984 49.9453 17.056L48.2653 19.384C48.1693 19.528 48.0413 19.6 47.8813 19.6ZM58.7163 26.896C58.0443 26.896 57.5403 26.64 57.2043 26.128C56.8683 25.632 56.7003 25.064 56.7003 24.424C56.7003 23.944 56.7243 23.472 56.7723 23.008C56.8043 22.56 56.8603 22.112 56.9403 21.664C56.9883 21.408 57.1003 21.28 57.2763 21.28C57.5963 21.28 57.7563 21.448 57.7563 21.784C57.7563 21.88 57.7323 22.024 57.6843 22.216C57.6363 22.376 57.6123 22.496 57.6123 22.576C57.5803 22.832 57.5563 23.096 57.5403 23.368C57.5243 23.656 57.5163 23.944 57.5163 24.232C57.5163 25.496 57.9803 26.128 58.9083 26.128C59.1803 26.128 59.4923 25.944 59.8443 25.576C60.2123 25.208 60.5403 24.808 60.8283 24.376C61.5003 23.368 62.2123 21.776 62.9643 19.6L63.7563 17.32C62.4603 18.872 61.2923 19.648 60.2523 19.648C59.6123 19.648 59.1163 19.408 58.7643 18.928C58.4123 18.448 58.2363 17.864 58.2363 17.176C58.2363 15.8 58.8443 14.28 60.0603 12.616C61.3883 10.84 62.6923 9.952 63.9723 9.952C64.9803 9.952 65.6443 10.544 65.9643 11.728C66.5723 10.256 67.1323 9.52 67.6443 9.52C67.8363 9.52 67.9323 9.68 67.9323 10C67.9323 10.64 67.6363 11.496 67.0443 12.568C66.9163 12.776 66.7563 13.032 66.5643 13.336C66.3883 13.64 66.1883 14 65.9643 14.416L65.1483 16.408C64.9883 16.792 64.7883 17.28 64.5483 17.872C64.3083 18.448 64.0363 19.128 63.7323 19.912C63.3803 20.872 63.0523 21.696 62.7483 22.384C62.4603 23.088 62.1963 23.664 61.9563 24.112C60.9163 25.968 59.8683 26.896 58.8123 26.896H58.7163ZM60.2523 18.808C61.2603 18.808 62.7483 17.456 64.7163 14.752L65.4123 12.976C65.3003 12.896 65.2203 12.728 65.1723 12.472C65.0283 11.784 64.8603 11.328 64.6683 11.104C64.4763 10.88 64.2203 10.768 63.9003 10.768C63.5323 10.768 63.1083 10.936 62.6283 11.272C62.1483 11.608 61.6923 12.024 61.2603 12.52C60.8283 13 60.4843 13.472 60.2283 13.936C59.4603 15.248 59.0763 16.376 59.0763 17.32C59.0763 18.312 59.4683 18.808 60.2523 18.808ZM77.4545 19.336C76.6065 19.336 75.9425 19.088 75.4625 18.592C74.9825 18.096 74.7425 17.432 74.7425 16.6C74.7425 15.16 75.4225 13.592 76.7825 11.896C77.4865 11.032 78.1985 10.376 78.9185 9.928C79.6545 9.464 80.3425 9.232 80.9825 9.232C81.5425 9.232 81.9745 9.424 82.2785 9.808C82.5825 10.192 82.7345 10.672 82.7345 11.248C82.7345 11.6 82.6865 11.96 82.5905 12.328C82.5265 12.584 82.3985 12.712 82.2065 12.712C81.9025 12.712 81.7505 12.544 81.7505 12.208C81.7505 12.064 81.7745 11.88 81.8225 11.656C81.8865 11.416 81.9185 11.184 81.9185 10.96C81.9185 10.32 81.6065 10 80.9825 10C80.6465 10 80.2385 10.12 79.7585 10.36C79.2945 10.6 78.8305 10.92 78.3665 11.32C77.9025 11.704 77.4945 12.144 77.1425 12.64C76.0705 14.096 75.5345 15.4 75.5345 16.552C75.5345 17.88 76.1345 18.544 77.3345 18.544C78.0865 18.544 78.8065 18.432 79.4945 18.208C80.1825 17.968 80.9905 17.48 81.9185 16.744C82.4945 16.296 82.9265 15.936 83.2145 15.664C83.5025 15.392 83.8145 15.104 84.1505 14.8C84.2465 14.736 84.3345 14.704 84.4145 14.704C84.4945 14.704 84.5745 14.728 84.6545 14.776C84.7345 14.824 84.7745 14.896 84.7745 14.992C84.7745 15.168 84.6145 15.416 84.2945 15.736C84.0225 15.992 83.7345 16.264 83.4305 16.552C83.1265 16.824 82.6465 17.208 81.9905 17.704C81.2865 18.248 80.5345 18.656 79.7345 18.928C78.9505 19.2 78.1905 19.336 77.4545 19.336ZM84.4408 19.24C83.5128 19.24 83.0488 18.8 83.0488 17.92C83.0488 17.344 83.1848 16.728 83.4568 16.072C83.7448 15.4 84.1288 14.752 84.6088 14.128C85.0888 13.488 85.6248 12.912 86.2168 12.4C86.8088 11.872 87.4168 11.456 88.0408 11.152C88.6648 10.832 89.2648 10.672 89.8408 10.672C90.8648 10.672 91.3768 11.176 91.3768 12.184C91.3768 12.84 91.2168 13.168 90.8968 13.168C90.6088 13.168 90.4648 13.032 90.4648 12.76C90.4648 12.648 90.4888 12.536 90.5368 12.424C90.6008 12.296 90.6328 12.16 90.6328 12.016C90.6328 11.568 90.3288 11.344 89.7208 11.344C88.7448 11.344 87.5208 12.088 86.0488 13.576C85.6968 13.944 85.3528 14.376 85.0168 14.872C84.6808 15.368 84.4008 15.872 84.1768 16.384C83.9688 16.88 83.8648 17.352 83.8648 17.8C83.8648 18.232 84.1048 18.448 84.5848 18.448C85.0008 18.448 85.4408 18.32 85.9048 18.064C86.3848 17.808 86.8008 17.544 87.1528 17.272C87.8568 16.744 88.5768 16.024 89.3128 15.112C89.4248 14.984 89.5688 14.816 89.7448 14.608C89.9208 14.4 90.1208 14.168 90.3448 13.912C90.4248 13.832 90.5208 13.792 90.6328 13.792C90.8888 13.792 91.0168 13.92 91.0168 14.176L90.1048 15.544C89.4968 16.44 89.1928 17.176 89.1928 17.752C89.1928 18.168 89.3928 18.376 89.7928 18.376C90.1288 18.376 90.4968 18.288 90.8968 18.112C91.2968 17.936 91.6248 17.76 91.8808 17.584C92.3928 17.248 92.9288 16.832 93.4888 16.336C94.0488 15.824 94.5848 15.312 95.0968 14.8C95.1608 14.736 95.2568 14.704 95.3848 14.704C95.6248 14.704 95.7448 14.8 95.7448 14.992C95.7448 15.168 95.6328 15.368 95.4088 15.592C94.7688 16.232 94.1928 16.784 93.6808 17.248C93.1688 17.696 92.6808 18.064 92.2168 18.352C91.9128 18.528 91.5368 18.712 91.0888 18.904C90.6408 19.096 90.1288 19.192 89.5528 19.192C88.7688 19.192 88.3768 18.776 88.3768 17.944C88.3768 17.624 88.4168 17.36 88.4968 17.152C87.0408 18.544 85.6888 19.24 84.4408 19.24ZM93.4672 19.6C93.2112 19.6 93.0832 19.496 93.0832 19.288C93.0832 19.208 93.1152 19.112 93.1792 19C93.2432 18.872 93.2992 18.768 93.3472 18.688L95.5072 14.344C96.4352 12.456 96.8992 11.408 96.8992 11.2C96.8992 10.976 97.0112 10.864 97.2352 10.864C97.5392 10.864 97.6912 11.024 97.6912 11.344C97.6912 11.456 97.6192 11.696 97.4752 12.064C97.3312 12.432 97.1472 12.848 96.9232 13.312C96.5392 14.144 96.2192 14.784 95.9632 15.232C96.4432 14.672 96.9312 14.144 97.4272 13.648C97.9232 13.152 98.4272 12.68 98.9392 12.232C100.459 10.904 101.627 10.24 102.443 10.24C103.003 10.24 103.283 10.504 103.283 11.032C103.283 11.512 102.875 12.592 102.059 14.272C101.243 15.968 100.835 17.04 100.835 17.488C100.835 17.696 100.907 17.8 101.051 17.8C101.099 17.8 101.171 17.784 101.267 17.752C101.379 17.704 101.491 17.68 101.603 17.68C101.875 17.68 102.011 17.808 102.011 18.064C102.011 18.384 101.667 18.544 100.979 18.544C100.659 18.544 100.427 18.472 100.283 18.328C100.139 18.168 100.067 17.96 100.067 17.704C100.067 16.936 100.459 15.768 101.243 14.2C102.027 12.648 102.419 11.712 102.419 11.392C102.419 11.2 102.347 11.104 102.203 11.104C101.851 11.104 101.283 11.4 100.499 11.992C99.6512 12.632 98.8032 13.368 97.9552 14.2C97.1072 15.032 96.2992 15.984 95.5312 17.056L93.8512 19.384C93.7552 19.528 93.6272 19.6 93.4672 19.6ZM112.251 20.416C111.803 20.416 111.427 20.28 111.123 20.008C110.835 19.736 110.691 19.384 110.691 18.952C110.691 18.792 110.699 18.688 110.715 18.64C110.491 19.152 110.283 19.408 110.091 19.408C109.835 19.408 109.707 19.256 109.707 18.952L111.579 14.056C111.867 13.288 112.195 12.496 112.563 11.68C112.931 10.848 113.299 10.056 113.667 9.304C114.051 8.536 114.403 7.848 114.723 7.24C115.059 6.616 115.331 6.12 115.539 5.752C116.051 4.872 116.539 4.192 117.003 3.712C117.483 3.216 117.859 2.968 118.131 2.968C118.435 2.968 118.587 3.136 118.587 3.472C118.587 3.664 118.491 3.76 118.299 3.76C117.883 3.76 117.171 4.632 116.163 6.376C115.843 6.92 115.539 7.464 115.251 8.008C114.979 8.536 114.715 9.064 114.459 9.592C114.107 10.344 113.739 11.152 113.355 12.016C112.971 12.88 112.571 13.792 112.155 14.752C112.683 13.984 113.267 13.28 113.907 12.64C114.467 12.08 115.043 11.632 115.635 11.296C116.243 10.944 116.843 10.768 117.435 10.768C118.091 10.768 118.611 10.904 118.995 11.176C119.379 11.448 119.571 11.96 119.571 12.712C119.571 13.336 119.387 14 119.019 14.704C118.667 15.408 118.203 16.096 117.627 16.768C117.067 17.44 116.451 18.056 115.779 18.616C115.123 19.16 114.483 19.592 113.859 19.912C113.235 20.248 112.699 20.416 112.251 20.416ZM112.179 19.624C112.659 19.624 113.187 19.456 113.763 19.12C114.339 18.8 114.915 18.376 115.491 17.848C116.067 17.32 116.595 16.752 117.075 16.144C117.555 15.52 117.939 14.912 118.227 14.32C118.515 13.712 118.659 13.176 118.659 12.712C118.659 11.992 118.299 11.632 117.579 11.632C116.939 11.632 116.315 11.824 115.707 12.208C115.099 12.592 114.507 13.104 113.931 13.744C113.371 14.384 112.843 15.088 112.347 15.856C111.851 16.624 111.395 17.4 110.979 18.184C111.123 18.04 111.259 17.968 111.387 17.968C111.611 17.968 111.723 18.072 111.723 18.28C111.723 18.376 111.683 18.48 111.603 18.592C111.571 18.64 111.539 18.696 111.507 18.76C111.475 18.824 111.459 18.92 111.459 19.048C111.459 19.432 111.699 19.624 112.179 19.624ZM122.442 19.432C121.77 19.432 121.242 19.2 120.858 18.736C120.474 18.272 120.282 17.704 120.282 17.032C120.282 15.88 120.666 14.696 121.434 13.48C121.642 13.144 121.882 12.816 122.154 12.496C122.426 12.16 122.722 11.84 123.042 11.536C123.522 11.072 124.026 10.688 124.554 10.384C125.082 10.08 125.594 9.928 126.09 9.928C126.906 9.928 127.314 10.312 127.314 11.08C127.314 12.04 126.754 12.912 125.634 13.696C124.594 14.4 123.57 14.752 122.562 14.752C122.386 14.752 122.226 14.744 122.082 14.728C121.954 14.696 121.834 14.664 121.722 14.632C121.562 14.936 121.418 15.328 121.29 15.808C121.162 16.288 121.098 16.704 121.098 17.056C121.098 18.112 121.562 18.64 122.49 18.64C123.242 18.64 123.954 18.512 124.626 18.256C125.298 17.984 126.098 17.48 127.026 16.744C127.602 16.296 128.034 15.936 128.322 15.664C128.61 15.392 128.922 15.104 129.258 14.8C129.354 14.736 129.442 14.704 129.522 14.704C129.602 14.704 129.682 14.728 129.762 14.776C129.842 14.824 129.882 14.896 129.882 14.992C129.882 15.168 129.722 15.416 129.402 15.736C129.13 15.992 128.842 16.264 128.538 16.552C128.234 16.824 127.754 17.208 127.098 17.704C126.394 18.248 125.626 18.672 124.794 18.976C123.962 19.28 123.178 19.432 122.442 19.432ZM122.418 13.984C122.93 13.984 123.418 13.904 123.882 13.744C124.346 13.584 124.786 13.352 125.202 13.048C126.13 12.36 126.594 11.712 126.594 11.104C126.594 10.832 126.426 10.696 126.09 10.696C125.45 10.696 124.706 11.088 123.858 11.872C123.442 12.256 123.098 12.608 122.826 12.928C122.57 13.232 122.33 13.568 122.106 13.936C122.202 13.968 122.306 13.984 122.418 13.984ZM133.787 26.92C133.275 26.92 132.915 26.744 132.707 26.392C132.483 26.056 132.371 25.6 132.371 25.024C132.371 23.712 132.987 21.688 134.219 18.952C134.155 18.888 134.123 18.808 134.123 18.712C134.123 18.552 134.267 18.392 134.555 18.232C135.403 16.52 136.187 15.008 136.907 13.696C137.643 12.368 138.307 11.24 138.899 10.312C140.883 7.272 142.667 5.168 144.251 4C144.459 3.84 144.659 3.712 144.851 3.616C145.043 3.52 145.235 3.472 145.427 3.472C145.683 3.472 145.811 3.576 145.811 3.784C145.811 3.896 145.763 4.016 145.667 4.144C145.587 4.256 145.443 4.44 145.235 4.696C144.995 4.968 144.715 5.288 144.395 5.656C144.075 6.008 143.739 6.376 143.387 6.76C143.051 7.144 142.739 7.496 142.451 7.816C142.163 8.12 141.931 8.36 141.755 8.536L139.547 10.816L138.779 12.04C138.571 12.36 138.315 12.8 138.011 13.36C137.723 13.904 137.379 14.552 136.979 15.304C136.819 15.608 136.611 16 136.355 16.48C136.115 16.96 135.835 17.528 135.515 18.184C135.643 18.2 135.755 18.232 135.851 18.28C135.963 18.312 136.067 18.352 136.163 18.4C138.355 17.728 140.427 16.544 142.379 14.848C142.491 14.768 142.587 14.728 142.667 14.728C142.939 14.728 143.075 14.848 143.075 15.088C143.075 15.152 143.051 15.216 143.003 15.28C142.971 15.344 142.931 15.408 142.883 15.472C142.643 15.728 142.299 16.024 141.851 16.36C141.403 16.696 140.843 17.056 140.171 17.44C139.595 17.76 139.035 18.056 138.491 18.328C137.963 18.584 137.451 18.8 136.955 18.976C137.403 19.52 137.627 20.216 137.627 21.064C137.627 22.232 137.283 23.448 136.595 24.712C135.795 26.184 134.859 26.92 133.787 26.92ZM133.643 26.2C134.107 26.2 134.547 26.008 134.963 25.624C135.395 25.24 135.763 24.744 136.067 24.136C136.291 23.704 136.475 23.184 136.619 22.576C136.779 21.984 136.859 21.464 136.859 21.016C136.859 20.12 136.587 19.52 136.043 19.216C135.835 19.248 135.643 19.272 135.467 19.288C135.291 19.32 135.123 19.328 134.963 19.312V19.336C133.619 22.328 132.947 24.376 132.947 25.48C132.947 25.72 133.011 25.896 133.139 26.008C133.267 26.136 133.435 26.2 133.643 26.2ZM149.964 19.816C149.18 19.816 148.788 19.248 148.788 18.112C148.788 17.504 148.932 16.768 149.22 15.904C147.284 18.16 145.764 19.288 144.66 19.288C143.748 19.288 143.292 18.736 143.292 17.632C143.292 17.216 143.356 16.72 143.484 16.144C143.628 15.552 143.812 14.944 144.036 14.32C144.276 13.696 144.532 13.112 144.804 12.568C145.076 12.024 145.348 11.584 145.62 11.248C145.716 11.136 145.836 11.08 145.98 11.08C146.06 11.08 146.14 11.112 146.22 11.176C146.3 11.224 146.34 11.304 146.34 11.416C146.34 11.512 146.284 11.648 146.172 11.824C145.452 13.008 144.94 14.04 144.636 14.92C144.252 15.928 144.06 16.8 144.06 17.536C144.06 18.224 144.236 18.568 144.588 18.568C144.812 18.568 145.108 18.456 145.476 18.232C145.844 18.008 146.22 17.736 146.604 17.416C147.004 17.08 147.348 16.768 147.636 16.48C148.436 15.632 149.156 14.728 149.796 13.768C150.084 13.32 150.34 12.888 150.564 12.472C150.804 12.04 151.02 11.592 151.212 11.128C151.292 10.952 151.356 10.824 151.404 10.744C151.468 10.648 151.556 10.6 151.668 10.6C152.004 10.6 152.172 10.728 152.172 10.984C152.172 11.144 152.116 11.256 152.004 11.32C150.372 14.632 149.556 16.912 149.556 18.16C149.556 18.496 149.588 18.736 149.652 18.88C149.716 19.008 149.828 19.072 149.988 19.072C150.212 19.072 150.556 18.928 151.02 18.64C151.5 18.352 152.06 17.912 152.7 17.32L155.22 15.016C155.348 14.888 155.468 14.824 155.58 14.824C155.836 14.824 155.964 14.944 155.964 15.184C155.964 15.392 155.46 15.952 154.452 16.864C154.02 17.264 153.636 17.6 153.3 17.872C152.964 18.144 152.652 18.384 152.364 18.592C151.82 18.976 151.34 19.272 150.924 19.48C150.508 19.704 150.188 19.816 149.964 19.816ZM153.678 19.6C153.422 19.6 153.294 19.496 153.294 19.288C153.294 19.208 153.326 19.112 153.39 19C153.454 18.872 153.51 18.768 153.558 18.688L155.718 14.344C156.646 12.456 157.11 11.408 157.11 11.2C157.11 10.976 157.222 10.864 157.446 10.864C157.75 10.864 157.902 11.024 157.902 11.344C157.902 11.456 157.83 11.696 157.686 12.064C157.542 12.432 157.358 12.848 157.134 13.312C156.75 14.144 156.43 14.784 156.174 15.232C156.654 14.672 157.142 14.144 157.638 13.648C158.134 13.152 158.638 12.68 159.15 12.232C160.67 10.904 161.838 10.24 162.654 10.24C163.214 10.24 163.494 10.504 163.494 11.032C163.494 11.512 163.086 12.592 162.27 14.272C161.454 15.968 161.046 17.04 161.046 17.488C161.046 17.696 161.118 17.8 161.262 17.8C161.31 17.8 161.382 17.784 161.478 17.752C161.59 17.704 161.702 17.68 161.814 17.68C162.086 17.68 162.222 17.808 162.222 18.064C162.222 18.384 161.878 18.544 161.19 18.544C160.87 18.544 160.638 18.472 160.494 18.328C160.35 18.168 160.278 17.96 160.278 17.704C160.278 16.936 160.67 15.768 161.454 14.2C162.238 12.648 162.63 11.712 162.63 11.392C162.63 11.2 162.558 11.104 162.414 11.104C162.062 11.104 161.494 11.4 160.71 11.992C159.862 12.632 159.014 13.368 158.166 14.2C157.318 15.032 156.51 15.984 155.742 17.056L154.062 19.384C153.966 19.528 153.838 19.6 153.678 19.6Z" fill="black"/>
</svg>
