<svg width="110" height="120" viewBox="0 0 110 120" fill="none" xmlns="http://www.w3.org/2000/svg">
<path fill-rule="evenodd" clip-rule="evenodd" d="M17.426 69.7851L34.203 81.7151C33.9335 82.4221 33.6053 83.1135 33.2264 83.7893L15.4604 70.2423L17.4252 69.7814L17.426 69.7851ZM34.946 73.0351C34.8249 72.3046 34.6608 71.5624 34.4538 70.8124L18.3488 61.5312L18.2629 62.8359L34.9509 73.0389L34.946 73.0351ZM18.212 63.5703L18.1144 65.0391L35.2164 76.1091C35.2164 75.3786 35.1656 74.6364 35.0718 73.8786L18.212 63.5703ZM34.993 78.8283C35.0516 78.4924 35.0946 78.1564 35.1297 77.8127C35.161 77.5041 35.1844 77.1955 35.1961 76.8791L18.0631 65.7851L17.9616 67.3398L34.9926 78.8238L34.993 78.8283ZM35.5399 79.4611C35.2235 81.008 34.6805 82.4923 33.911 83.9064L41.3485 83.3908C42.3016 81.797 42.868 79.801 43.0047 77.5822C43.1414 75.4064 42.868 73.0158 42.1492 70.5861L35.1492 70.9064C35.3914 71.8322 35.575 72.7423 35.6922 73.633L35.6961 73.6447C35.8367 74.6916 35.8875 75.7111 35.8562 76.7072V76.7268C35.8445 77.1135 35.8172 77.4963 35.7781 77.8791C35.7234 78.4025 35.6453 78.9143 35.5437 79.426C35.5398 79.4377 35.5398 79.4494 35.5359 79.4611L35.5399 79.4611ZM17.9109 68.1021L17.8328 69.274L34.4348 81.079C34.6027 80.5712 34.7473 80.0556 34.8605 79.5282L17.9155 68.1022L17.9109 68.1021ZM85.2779 68.4498C86.1177 70.4732 86.5084 72.485 86.3717 74.4889C86.235 76.4616 85.5904 78.4303 84.3483 80.4108L79.2741 80.7623C80.1881 79.1764 80.9616 77.3209 81.2272 75.3209C81.4498 73.6412 81.3131 71.86 80.5944 70.0631L85.2779 68.4498ZM74.8829 71.9732C74.9493 71.9927 75.0196 71.9888 75.086 71.9615L79.9727 70.2779C80.6524 71.9693 80.7813 73.649 80.5743 75.2349C80.3008 77.3013 79.4532 79.2193 78.4805 80.8169L42.1325 83.3403C43.0036 81.727 43.5231 79.7739 43.6598 77.6255C43.8004 75.4224 43.5348 73.0122 42.8238 70.5591L64.8078 69.5552L74.8829 71.9732ZM62.5159 69.0044L25.1679 60.0396L17.414 60.2427L18.203 60.6958C18.2109 60.6997 18.2187 60.7036 18.2265 60.7076L34.8085 70.2623L42.3632 69.9185H42.3905L62.5155 69.0005L62.5159 69.0044ZM74.4929 69.6802C74.653 70.2388 74.864 70.7661 75.1257 71.2583L80.0515 69.5591H80.0554L94.5394 64.5669L92.8675 63.938L74.4965 69.6802L74.4929 69.6802ZM68.4265 60.0279C67.3562 61.6646 66.7234 63.3482 66.5163 64.9537C66.3053 66.5865 66.5436 68.1334 67.2116 69.4576L74.3522 71.1724C73.6881 69.7388 73.3795 68.0318 73.5084 66.3169C73.6334 64.6528 74.1686 62.9771 75.1881 61.5239L68.4265 60.0279ZM31.3915 60.8638L25.4071 59.4263C24.3876 57.8482 24.0907 56.1958 24.3407 54.6255C24.6141 52.8794 25.5595 51.2232 26.9149 49.8521L32.9422 51.3443C31.6219 52.6138 30.9305 54.1255 30.6805 55.6568C30.3836 57.4888 30.7234 59.3521 31.3875 60.8638H31.3915ZM74.6415 64.02L93.0865 59.2153L92.9693 60.1684L74.3133 65.2504C74.3953 64.8364 74.5047 64.4262 74.6453 64.0238L74.6415 64.02ZM93.1725 58.5161L74.9425 63.2661C75.2042 62.688 75.5362 62.1294 75.9347 61.6059L93.2747 57.684L93.1731 58.5199L93.1725 58.5161ZM74.1685 67.9575C74.1997 68.3247 74.2583 68.6919 74.3325 69.0473L92.5705 63.3442L92.6643 62.6059L74.1685 67.9575ZM92.7505 61.895L74.1295 67.2817C74.1217 66.977 74.1334 66.6684 74.1529 66.3598C74.1646 66.2231 74.1764 66.0903 74.192 65.9536L92.876 60.8677L92.7471 61.8911L92.7505 61.895ZM39.9265 78.813C39.7351 78.9849 39.4773 79.0864 39.1999 79.0747C38.9226 79.0591 38.6765 78.938 38.5046 78.7466C38.3327 78.5552 38.2312 78.2974 38.2429 78.02C38.2585 77.7427 38.3835 77.4966 38.571 77.3247C38.7624 77.1529 39.0202 77.0513 39.2976 77.063C39.5749 77.0786 39.821 77.1997 39.9929 77.3911C40.1647 77.5825 40.2663 77.8404 40.2546 78.1177C40.239 78.395 40.1179 78.6411 39.9265 78.813ZM39.1687 79.7271C38.7077 79.7036 38.3054 79.4966 38.0164 79.1841C37.7312 78.8677 37.5632 78.4458 37.5867 77.9849C37.6101 77.524 37.8171 77.1216 38.1296 76.8326C38.4461 76.5474 38.8679 76.3795 39.3288 76.4029C39.7898 76.4263 40.1921 76.6334 40.4811 76.9459C40.7663 77.2623 40.9343 77.6842 40.9108 78.1451C40.8874 78.606 40.6804 79.0084 40.3679 79.2974C40.0515 79.5825 39.6296 79.7505 39.1687 79.7271ZM28.1137 56.0791C28.3051 55.9072 28.4301 55.6611 28.4418 55.3838C28.4574 55.1064 28.3559 54.8486 28.1801 54.6572C28.0082 54.4658 27.7621 54.3408 27.4848 54.3291C27.2074 54.3135 26.9496 54.415 26.7582 54.5908C26.5668 54.7627 26.4418 55.0088 26.4301 55.2861C26.4145 55.5634 26.516 55.8213 26.6918 56.0127C26.8637 56.2041 27.1098 56.3291 27.3871 56.3408C27.6644 56.3564 27.9223 56.2548 28.1137 56.0791ZM27.3559 56.9931C27.8168 57.0166 28.2387 56.8486 28.5551 56.5634C28.8715 56.2783 29.0785 55.872 29.098 55.4111C29.1215 54.9502 28.9535 54.5283 28.6683 54.2119C28.3832 53.8955 27.9769 53.6885 27.516 53.669C27.0551 53.6455 26.6332 53.8135 26.3168 54.0987C26.0004 54.3838 25.7934 54.7901 25.7739 55.251C25.7504 55.7119 25.9184 56.1338 26.2036 56.4502C26.4887 56.7666 26.895 56.9736 27.3559 56.9931ZM90.4809 45.5751C90.4691 45.579 90.4535 45.579 90.4418 45.5829L72.6258 49.6141L24.8598 39.0551L45.3368 36.0942L90.9268 45.4692L90.4854 45.5708L90.4809 45.5751ZM72.7929 60.3171L87.0629 55.3991L94.0512 56.8366L93.6097 56.9382C93.598 56.9421 93.5824 56.9421 93.5707 56.946L75.7547 60.9772C74.7703 60.7584 73.782 60.5397 72.7977 60.317L72.7929 60.3171ZM71.3671 58.321C71.5272 58.8796 71.7382 59.4069 71.9999 59.8991L91.4139 53.2077L89.742 52.5788L71.371 58.321L71.3671 58.321ZM64.0819 58.0984L71.2225 59.8132C70.5584 58.3796 70.2498 56.6726 70.3787 54.9577C70.5037 53.2936 71.0389 51.6179 72.0584 50.1647L65.2967 48.6725C64.2264 50.3092 63.5936 51.9928 63.3865 53.5983C63.1756 55.2311 63.4139 56.778 64.0818 58.1022L64.0819 58.0984ZM29.0819 49.7L63.2729 57.907C62.7182 56.5789 62.5385 55.0789 62.7377 53.5125C62.9486 51.8836 63.5697 50.1766 64.6205 48.5203L61.6947 47.8718L30.1327 40.8952C28.7616 42.0749 28.1249 43.3913 27.9569 44.7194C27.7381 46.446 28.3046 48.2038 29.0858 49.6999L29.0819 49.7ZM29.3514 40.7234L23.16 39.3562C22.0936 40.6414 21.4373 41.989 21.2616 43.4187C21.0858 44.8679 21.4061 46.4109 22.2968 48.071L26.8749 49.1687C26.8827 49.1687 26.8866 49.1726 26.8944 49.1726L26.9569 49.1882L28.2538 49.5007C27.5546 48.0163 27.0897 46.3249 27.3046 44.6374C27.4765 43.2819 28.0818 41.9383 29.3514 40.7234ZM71.5194 52.6614C71.3788 53.0637 71.2694 53.4739 71.1874 53.888L89.8434 48.806L89.9605 47.8528L71.5155 52.6575L71.5194 52.6614ZM90.0504 47.1575L90.1519 46.3215L72.812 50.2434C72.4096 50.7669 72.0815 51.3215 71.8198 51.9036L90.0498 47.1536L90.0504 47.1575ZM71.0464 56.5989C71.0776 56.9661 71.1362 57.3332 71.2104 57.6887L89.4484 51.9856L89.5422 51.2473L71.0464 56.5989ZM89.6284 50.5364L89.7573 49.513L71.0733 54.5989C71.0577 54.7356 71.046 54.8684 71.0342 55.0051C71.0108 55.3137 71.003 55.6184 71.0108 55.927L89.6318 50.5364L89.6284 50.5364ZM24.9874 44.72C25.1788 44.5481 25.3038 44.302 25.3155 44.0247C25.3311 43.7473 25.2296 43.4895 25.0538 43.2981C24.8819 43.1067 24.6358 42.9817 24.3585 42.97C24.0811 42.9544 23.8233 43.0559 23.6319 43.2317C23.4405 43.4036 23.3155 43.6497 23.3038 43.927C23.2882 44.2043 23.3897 44.4622 23.5655 44.6536C23.7374 44.845 23.9835 44.97 24.2608 44.9817C24.5382 44.9973 24.796 44.8957 24.9874 44.72ZM24.2296 45.634C24.6905 45.6575 25.1124 45.4895 25.4288 45.2043C25.7452 44.9192 25.9522 44.5129 25.9718 44.052C25.9952 43.5911 25.8272 43.1692 25.5421 42.8528C25.2569 42.5364 24.8506 42.3294 24.3898 42.3099C23.9288 42.2864 23.5069 42.4544 23.1906 42.7396C22.8741 43.0247 22.6671 43.431 22.6476 43.8919C22.6242 44.3528 22.7921 44.7747 23.0773 45.0911C23.3624 45.4074 23.7687 45.6145 24.2296 45.634ZM66.2336 68.837L64.8742 68.8995L32.2062 61.0597C31.4484 59.5831 31.0187 57.6535 31.3273 55.7589C31.5734 54.2433 32.296 52.7511 33.7062 51.5323L64.7612 59.212C64.7807 59.2198 64.8002 59.2277 64.8198 59.2316L67.7417 59.8761C66.6909 61.5363 66.0698 63.2394 65.8589 64.8683C65.6792 66.2667 65.8042 67.6144 66.2299 68.8331L66.2336 68.837Z" fill="white"/>
</svg>
