<svg width="351" height="340" viewBox="0 0 351 340" fill="none" xmlns="http://www.w3.org/2000/svg">
<path d="M333.45 135.32H17.5498V136.68H333.45V135.32Z" fill="black"/>
<path d="M176.378 13.6H174.623V258.4H176.378V13.6Z" fill="black"/>
<path d="M244.77 13.6C244.752 13.736 244.731 13.872 244.714 14.008C244.563 15.1449 243.962 16.2928 243.59 17.3971C243.404 17.9384 243.246 18.4715 243.162 19.0264C243.12 19.3147 243.137 19.6792 243.022 19.9566C242.92 20.1933 242.604 20.3891 242.523 20.7155C241.351 25.587 239.649 30.3606 238.209 35.1886C237.518 37.5061 236.928 40.0302 235.907 42.2416C235.672 42.7584 235.598 43.3649 235.437 43.9008C235.244 44.5318 234.801 45.0105 234.531 45.6171C234.012 46.7976 233.997 48.0977 233.632 49.3081C233.31 50.3825 232.779 51.4841 232.337 52.5395C231.86 53.6792 231.565 54.8025 231.204 55.9667C230.459 58.3385 229.361 60.6342 228.494 62.9789C226.788 67.6165 224.966 72.1452 223.008 76.7094C220.996 81.3851 219.147 85.9873 216.823 90.5923C216.24 91.7429 215.707 92.9097 215.114 94.0576C214.584 95.0884 214.212 96.2526 213.608 97.2427C213.257 97.8139 212.804 98.2518 212.502 98.8584C212.214 99.4296 212.179 100.123 211.835 100.667C211.516 101.173 210.996 101.608 210.663 102.122C210.273 102.729 210.045 103.335 209.719 103.964C207.251 108.705 203.706 113.095 200.523 117.553C199.838 118.516 199.031 119.528 198.164 120.395C197.676 120.882 197.188 121.358 196.693 121.837C196.258 122.256 196.118 122.933 195.637 123.289C192.927 125.324 190.21 127.353 187.497 129.382C186.412 130.19 185.331 131.003 184.25 131.811C183.246 132.559 181.449 132.964 180.161 133.315C178.487 133.772 177.072 133.729 175.282 133.729C173.804 133.729 172.471 133.321 171.046 133.032C169.764 132.771 168.841 132.056 167.799 131.433C165.953 130.323 164.103 129.214 162.257 128.107C159.975 126.736 157.964 125.085 156.24 123.308C154.331 121.342 152.587 119.286 150.863 117.213C150.428 116.693 150.073 116.16 149.715 115.603C149.361 115.056 148.862 114.626 148.634 114.071C148.438 113.593 147.651 112.981 147.286 112.551C146.876 112.061 146.63 111.321 146.307 110.788C144.984 108.607 142.945 106.493 142.092 104.157C141.625 102.892 140.835 101.864 140 100.751C139.694 100.346 139.631 99.7668 139.371 99.3208C138.989 98.6571 138.599 97.9961 138.203 97.3379C137.918 96.8646 137.82 96.3641 137.532 95.8881C137.297 95.5019 136.493 94.7485 136.416 94.3486C136.17 93.0757 135.272 92.0448 134.847 90.8153C134.429 89.5913 133.794 88.419 133.246 87.2222C132.745 86.1342 132.141 85.0326 131.684 83.9364C130.677 81.5184 129.526 79.1275 128.606 76.6931C127.725 74.3566 126.613 72.2459 125.746 69.9638C124.847 67.5974 123.717 65.2555 122.976 62.8564C122.597 61.6325 122.011 60.5037 121.555 59.296C121.077 58.0149 120.856 56.867 120.112 55.6593C119.512 54.6856 119.392 53.2032 118.975 52.1397C118.497 50.9238 118.083 49.7243 117.743 48.4785C117.121 46.1937 116.076 43.8681 115.377 41.6785C113.833 36.8179 112.271 31.9573 110.747 27.1157C110.386 25.9678 110.101 24.7792 109.677 23.6232C109.242 22.4454 109.038 21.3302 108.74 20.147C108.585 19.535 108.406 19.059 108.118 18.4905C107.834 17.9384 107.862 17.4134 107.743 16.8341C107.518 15.7733 106.992 14.688 106.63 13.6H103.046C103.306 14.4269 103.59 15.2456 103.78 16.0942C104.057 17.3182 104.145 18.6374 104.591 19.8261C105.437 22.0891 106.479 24.3685 106.883 26.7049C107.318 29.2237 108.494 31.6417 109.217 34.1414C109.898 36.4779 110.596 38.8361 111.383 41.1481C113.025 45.9625 114.787 50.7579 116.469 55.5669C117.293 57.9142 117.995 60.2697 119.006 62.5817C119.512 63.7323 119.919 64.8339 120.358 65.9926C120.772 67.0969 120.909 68.6337 121.663 69.5449C122.092 70.059 121.976 70.6901 122.404 71.2313C122.755 71.6693 122.769 72.3928 122.99 72.896C123.478 74.0057 123.85 75.1373 124.331 76.2443C125.381 78.6651 126.444 81.0206 127.515 83.4333C128.532 85.7153 129.315 88.1361 130.603 90.3856C131.811 92.4827 132.734 94.743 133.787 96.8809C136.051 101.478 138.775 106.05 141.618 110.446C143.113 112.76 144.749 114.991 146.339 117.262C147.781 119.324 149.389 121.192 151.105 123.191C153.032 125.427 155.244 127.233 157.694 129.132C160.14 131.022 162.534 132.733 165.559 134.052C167.96 135.086 170.961 136 173.734 136C175.777 136 177.816 136 179.859 136C181.235 136 182.776 135.336 183.998 134.912C185.335 134.455 187.153 134.009 188.276 133.275C189.691 132.344 190.979 131.303 192.302 130.299C194.57 128.566 196.953 126.809 198.89 124.853C200.765 122.963 202.436 120.752 203.994 118.682C205.609 116.541 207.209 114.376 208.62 112.148C211.593 107.473 214.208 102.713 216.956 97.9608C217.571 96.8972 217.83 95.7494 218.596 94.7512C219.343 93.7856 219.698 92.3956 220.214 91.2832C220.698 90.2332 221.098 89.1779 221.555 88.1198C222.109 86.8333 222.906 85.5249 223.295 84.2248C223.639 83.0824 224.394 82.0161 224.854 80.9064C225.338 79.7422 225.686 78.5699 226.23 77.4193C227.332 75.0638 228.266 72.6756 229.291 70.2984C229.743 69.243 230.344 68.0517 230.586 66.9609C230.888 65.6009 231.354 64.5483 232.004 63.2808C232.565 62.1846 232.994 60.8763 233.285 59.723C233.436 59.1137 233.703 58.6758 233.952 58.1808C234.247 57.5933 234.303 56.8017 234.517 56.1816C234.917 55.0201 235.447 53.8941 235.865 52.7381C236.286 51.5766 236.5 50.3798 236.932 49.2129C237.816 46.8139 238.701 44.4937 239.403 42.0539C240.077 39.7174 240.989 37.4272 241.677 35.088C242.393 32.6509 243.576 30.2056 244.036 27.7385C244.482 25.3395 245.423 23.0493 246.188 20.7128C246.637 19.3419 246.967 17.971 247.297 16.5838C247.539 15.5829 248.041 14.6064 248.188 13.6H244.77Z" fill="black"/>

</svg>
