<svg width="154" height="71" viewBox="0 0 154 71" fill="none" xmlns="http://www.w3.org/2000/svg">
<path d="M25.624 25.16C27.064 25.16 28.264 25.112 29.224 25.016V25.976C28.584 26.136 27.96 26.552 27.352 27.224C26.744 27.864 26.088 28.872 25.384 30.248L17.848 45.176V53.912C17.848 55.128 17.944 56.008 18.136 56.552C18.328 57.096 18.68 57.464 19.192 57.656C19.736 57.848 20.584 57.976 21.736 58.04V59C20.264 58.904 18.232 58.856 15.64 58.856C12.888 58.856 10.84 58.904 9.496 59V58.04C10.648 57.976 11.48 57.848 11.992 57.656C12.536 57.464 12.904 57.096 13.096 56.552C13.288 56.008 13.384 55.128 13.384 53.912V46.712L3.64 28.712C3.064 27.656 2.552 26.952 2.104 26.6C1.688 26.216 1.272 26.024 0.856 26.024V25.016C2.104 25.112 3.512 25.16 5.08 25.16C8.184 25.16 10.424 25.112 11.8 25.016V26.024C9.56 26.024 8.44 26.632 8.44 27.848C8.44 28.328 8.6 28.888 8.92 29.528L16.888 44.84L23.032 32.648C23.896 30.952 24.328 29.576 24.328 28.52C24.328 27.624 23.976 26.984 23.272 26.6C22.568 26.216 21.512 26.008 20.104 25.976V25.016C21.928 25.112 23.768 25.16 25.624 25.16ZM56.9114 39.32H32.8634V37.88H56.9114V39.32ZM56.9114 46.04H32.8634V44.6H56.9114V46.04Z" fill="black"/>
<path d="M71 27.438L89.5 59L102.5 2H154" stroke="black" stroke-width="3"/>
<path d="M138.92 55.592C139.528 56.456 140.04 57.048 140.456 57.368C140.872 57.688 141.352 57.896 141.896 57.992V59C140.456 58.904 139.16 58.856 138.008 58.856C136.088 58.856 133.832 58.904 131.24 59V57.992C132.296 57.992 133.064 57.928 133.544 57.8C134.024 57.672 134.264 57.464 134.264 57.176C134.264 56.984 134.136 56.712 133.88 56.36L126.392 46.088L120.344 54.008C119.8 54.744 119.528 55.448 119.528 56.12C119.528 56.696 119.768 57.16 120.248 57.512C120.728 57.864 121.448 58.04 122.408 58.04V59C120.584 58.904 118.776 58.856 116.984 58.856C116.632 58.856 116.04 58.888 115.208 58.952L113.768 59V58.04C114.44 57.976 115.208 57.64 116.072 57.032C116.968 56.392 117.72 55.656 118.328 54.824L125.72 45.176L117.032 33.224C116.328 32.264 115.8 31.64 115.448 31.352C115.096 31.032 114.632 30.856 114.056 30.824V29.816C115.496 29.912 116.792 29.96 117.944 29.96C119.864 29.96 122.12 29.912 124.712 29.816V30.824C123.656 30.824 122.888 30.888 122.408 31.016C121.928 31.144 121.688 31.352 121.688 31.64C121.688 31.832 121.816 32.104 122.072 32.456L129.08 42.056L134.696 34.76C135.24 34.056 135.512 33.384 135.512 32.744C135.512 32.168 135.256 31.704 134.744 31.352C134.232 30.968 133.48 30.776 132.488 30.776V29.816C134.312 29.912 136.12 29.96 137.912 29.96C139.288 29.96 140.36 29.912 141.128 29.816V30.776C140.424 30.84 139.656 31.16 138.824 31.736C138.024 32.312 137.256 33.08 136.52 34.04L129.656 42.92L138.92 55.592Z" fill="black"/>
</svg>
