<svg width="54" height="70" viewBox="0 0 54 86" fill="none" xmlns="http://www.w3.org/2000/svg">
<path d="M40.712 26.608C42.952 26.608 44.712 27.136 45.992 28.192C47.272 29.248 47.912 30.736 47.912 32.656C47.912 33.968 47.56 35.248 46.856 36.496C46.184 37.712 45.352 38.832 44.36 39.856C43.4 40.88 42.12 42.112 40.52 43.552C39.208 44.768 38.232 45.696 37.592 46.336C36.952 46.944 36.376 47.6 35.864 48.304H45.608C46.472 48.304 47.112 48.24 47.528 48.112C47.976 47.952 48.28 47.712 48.44 47.392C48.6 47.04 48.728 46.528 48.824 45.856H49.64C49.64 48.8 49.704 50.928 49.832 52.24C49.128 52.08 46.744 52 42.68 52H31.448V51.184C31.992 50.608 32.92 49.696 34.232 48.448C36.056 46.752 37.576 45.232 38.792 43.888C40.008 42.512 41.048 40.96 41.912 39.232C42.808 37.504 43.256 35.664 43.256 33.712C43.256 30.256 41.656 28.528 38.456 28.528C35.832 28.528 33.688 30.032 32.024 33.04L31.256 32.608C32.088 30.88 33.272 29.456 34.808 28.336C36.344 27.184 38.312 26.608 40.712 26.608Z" fill="black"/>
<path d="M25.92 70.592C26.528 71.456 27.04 72.048 27.456 72.368C27.872 72.688 28.352 72.896 28.896 72.992V74C27.456 73.904 26.16 73.856 25.008 73.856C23.088 73.856 20.832 73.904 18.24 74V72.992C19.296 72.992 20.064 72.928 20.544 72.8C21.024 72.672 21.264 72.464 21.264 72.176C21.264 71.984 21.136 71.712 20.88 71.36L13.392 61.088L7.344 69.008C6.8 69.744 6.528 70.448 6.528 71.12C6.528 71.696 6.768 72.16 7.248 72.512C7.728 72.864 8.448 73.04 9.408 73.04V74C7.584 73.904 5.776 73.856 3.984 73.856C3.632 73.856 3.04 73.888 2.208 73.952L0.768 74V73.04C1.44 72.976 2.208 72.64 3.072 72.032C3.968 71.392 4.72 70.656 5.328 69.824L12.72 60.176L4.032 48.224C3.328 47.264 2.8 46.64 2.448 46.352C2.096 46.032 1.632 45.856 1.056 45.824V44.816C2.496 44.912 3.792 44.96 4.944 44.96C6.864 44.96 9.12 44.912 11.712 44.816V45.824C10.656 45.824 9.888 45.888 9.408 46.016C8.928 46.144 8.688 46.352 8.688 46.64C8.688 46.832 8.816 47.104 9.072 47.456L16.08 57.056L21.696 49.76C22.24 49.056 22.512 48.384 22.512 47.744C22.512 47.168 22.256 46.704 21.744 46.352C21.232 45.968 20.48 45.776 19.488 45.776V44.816C21.312 44.912 23.12 44.96 24.912 44.96C26.288 44.96 27.36 44.912 28.128 44.816V45.776C27.424 45.84 26.656 46.16 25.824 46.736C25.024 47.312 24.256 48.08 23.52 49.04L16.656 57.92L25.92 70.592Z" fill="black"/>
</svg>
